<svg width="202" height="361" viewBox="0 0 202 361" fill="none" xmlns="http://www.w3.org/2000/svg">
<g style="mix-blend-mode:multiply" opacity="0.2">
<path d="M63.6797 320.8H107.969L171.699 303.73L129.75 292.5H63.6797V320.8Z" fill="#242B52"/>
</g>
<path d="M63.6809 320.8L6.38086 305.45V298.75L63.6809 314.11V320.8Z" fill="#444051"/>
<path d="M63.6816 320.8L120.981 305.45V298.75L63.6816 314.11V320.8Z" fill="#001230"/>
<path d="M63.6802 316.87L0 299.8V95.0903L63.6802 112.16V316.87Z" fill="#E6E7E8"/>
<path d="M63.6797 316.87L127.37 299.8V95.0903L63.6797 112.16V316.87Z" fill="#D0D2D3"/>
<path d="M127.37 95.0903L63.6802 78.0303L0 95.0903L63.6802 112.16L127.37 95.0903Z" fill="#7D8191"/>
<path d="M55.8503 292.64L7.82031 279.77V175.3L55.8503 188.17V292.64Z" fill="#D0D2D3"/>
<path d="M7.82031 175.3V279.77L13.4304 278.27V176.8L7.82031 175.3Z" fill="#B4BDC5"/>
<path d="M55.8503 292.64L7.82031 279.77L13.4304 278.27L55.8503 289.64V292.64Z" fill="white"/>
<path d="M69.9199 156.919L95.9199 149.959V120.6L69.9199 127.56V156.919Z" fill="#001230"/>
<path d="M95.9207 120.6V149.959L92.8906 149.14V121.409L95.9207 120.6Z" fill="#B4BDC5"/>
<path d="M69.9199 156.919L95.9199 149.959L92.8899 149.14L69.9199 155.3V156.919Z" fill="#E6E7E8"/>
<path d="M51.8611 247.66L17.541 238.46V235.05L51.8611 244.25V247.66Z" fill="#43596D"/>
<path d="M51.8611 284.26L17.541 275.07V271.65L51.8611 280.85V284.26Z" fill="#43596D"/>
<path d="M51.8611 276.94L17.541 267.75V264.33L51.8611 273.53V276.94Z" fill="#43596D"/>
<path d="M51.8611 269.62L17.541 260.42V257.01L51.8611 266.21V269.62Z" fill="#43596D"/>
<path d="M51.8611 262.3L17.541 253.1V249.689L51.8611 258.89V262.3Z" fill="#43596D"/>
<path d="M51.8611 254.98L17.541 245.78V242.37L51.8611 251.57V254.98Z" fill="#43596D"/>
<path d="M51.8611 203.47L17.541 194.27V190.86L51.8611 200.05V203.47Z" fill="#43596D"/>
<path d="M51.8611 240.07L17.541 230.87V227.46L51.8611 236.65V240.07Z" fill="#43596D"/>
<path d="M51.8611 232.75L17.541 223.55V220.14L51.8611 229.33V232.75Z" fill="#43596D"/>
<path d="M51.8611 225.43L17.541 216.23V212.82L51.8611 222.01V225.43Z" fill="#43596D"/>
<path d="M51.8611 218.11L17.541 208.91V205.5L51.8611 214.69V218.11Z" fill="#43596D"/>
<path d="M51.8611 210.79L17.541 201.59V198.18L51.8611 207.37V210.79Z" fill="#43596D"/>
<path d="M55.8503 181.94L7.82031 169.08V114.84L55.8503 127.71V181.94Z" fill="#43596D"/>
<path d="M7.82031 114.84V169.08L13.4304 167.58L28.0703 120.27L7.82031 114.84Z" fill="#B4BDC5"/>
<path d="M55.8503 181.94L7.82031 169.08L13.4304 167.58L55.8503 178.94V181.94Z" fill="white"/>
<path d="M55.8511 163.49L21.2109 154.21L28.9312 128.7L55.8911 135.93L55.8511 163.49Z" fill="#001230"/>
<path d="M63.6809 109.87L0.470703 92.9297V16.9297L63.6809 33.8699V109.87Z" fill="#E6E7E7"/>
<path d="M63.6816 109.87L126.902 92.9297V16.9297L63.6816 33.8699V109.87Z" fill="#D0D2D3"/>
<path d="M126.901 16.9299L63.6809 0L0.470703 16.9299L63.6809 33.8701L126.901 16.9299Z" fill="#F2F2F2"/>
<g style="mix-blend-mode:multiply" opacity="0.1">
<path d="M63.6797 316.87L127.37 299.8V95.0898L63.6797 316.87Z" fill="#242B52"/>
</g>
<path d="M41.8091 60.6404L31.2991 57.8203V35.3604L15.2891 63.5103L25.7991 66.3203V88.7803L41.8091 60.6404Z" fill="#37FE12"/>
<path d="M82.9194 138.76C112.849 145.63 113.229 204.48 113.229 270.64C113.229 322.59 234.669 309.75 187.069 332.22C122.599 362.65 40.7494 366.51 63.6794 339.45C96.0594 301.23 86.9894 229.75 82.8894 163.91" stroke="#37FE12" stroke-width="6.13" stroke-miterlimit="10"/>
<path d="M72.3906 140.67L82.9106 140.22L86.9905 147.31V165.47L79.4905 165.84L75.9905 150.93L72.4407 150.29L72.3906 140.67Z" fill="#43596D"/>
<path d="M22.2393 158.53L20.4492 158.05L20.9893 156.37L22.7793 156.85L22.2393 158.53Z" fill="#001230"/>
<path d="M25.1611 159.3L23.3711 158.83L23.9011 157.14L25.7009 157.62L25.1611 159.3Z" fill="#001230"/>
<path d="M28.0693 160.08L26.2793 159.6L26.8193 157.92L28.6094 158.4L28.0693 160.08Z" fill="#001230"/>
<path d="M30.9893 160.85L29.1895 160.38L29.7292 158.7L31.5193 159.17L30.9893 160.85Z" fill="#001230"/>
<path d="M33.8994 161.63L32.1094 161.15L32.6494 159.47L34.4395 159.95L33.8994 161.63Z" fill="#001230"/>
<path d="M21.29 161.52L19.5 161.05L20.03 159.37L21.8201 159.84L21.29 161.52Z" fill="#001230"/>
<path d="M24.2 162.3L22.4102 161.82L22.95 160.14L24.74 160.62L24.2 162.3Z" fill="#001230"/>
<path d="M27.1204 163.08L25.3203 162.6L25.8604 160.92L27.6504 161.39L27.1204 163.08Z" fill="#001230"/>
<path d="M30.0303 163.85L28.2402 163.37L28.7703 161.69L30.5703 162.17L30.0303 163.85Z" fill="#001230"/>
<path d="M32.9502 164.63L31.1504 164.15L31.6904 162.47L33.4802 162.94L32.9502 164.63Z" fill="#001230"/>
<path d="M20.3291 164.52L18.5391 164.05L19.0691 162.36L20.8691 162.84L20.3291 164.52Z" fill="#001230"/>
<path d="M23.2493 165.3L21.4492 164.82L21.9893 163.14L23.7793 163.62L23.2493 165.3Z" fill="#001230"/>
<path d="M26.1611 166.07L24.3711 165.6L24.9011 163.91L26.7009 164.39L26.1611 166.07Z" fill="#001230"/>
<path d="M29.0693 166.85L27.2793 166.37L27.8193 164.69L29.6094 165.17L29.0693 166.85Z" fill="#001230"/>
<path d="M31.9893 167.62L30.1992 167.15L30.7292 165.47L32.5293 165.94L31.9893 167.62Z" fill="#001230"/>
<path d="M19.3801 167.52L17.5801 167.04L18.1201 165.36L19.9102 165.84L19.3801 167.52Z" fill="#001230"/>
<path d="M22.29 168.29L20.5 167.82L21.03 166.14L22.8301 166.61L22.29 168.29Z" fill="#001230"/>
<path d="M25.2 169.07L23.4102 168.59L23.95 166.91L25.74 167.39L25.2 169.07Z" fill="#001230"/>
<path d="M28.1204 169.85L26.3203 169.37L26.8604 167.69L28.6504 168.16L28.1204 169.85Z" fill="#001230"/>
<path d="M31.0303 170.62L29.2402 170.14L29.7803 168.46L31.5703 168.94L31.0303 170.62Z" fill="#001230"/>
<path d="M42.8702 162.38C43.1002 162.9 42.8701 163.63 42.3401 164.02C41.8101 164.41 41.19 164.29 40.96 163.77C40.73 163.25 40.96 162.52 41.49 162.13C42.02 161.75 42.6402 161.86 42.8702 162.38Z" fill="#00C48B"/>
<path d="M45.7195 163.16C45.9495 163.68 45.7198 164.41 45.1898 164.8C44.6598 165.18 44.0396 165.07 43.8096 164.55C43.5796 164.03 43.8097 163.3 44.3397 162.91C44.8697 162.53 45.4895 162.64 45.7195 163.16Z" fill="#00A88A"/>
</svg>
