<svg width="1062" height="631" viewBox="0 0 1062 631" fill="none" xmlns="http://www.w3.org/2000/svg">
<g style="mix-blend-mode:multiply" opacity="0.4">
<path d="M895.963 458.74C872.373 452.42 833.772 452.42 810.182 458.74L386.693 572.16C363.103 578.48 363.103 588.82 386.693 595.15L490.912 623.04C514.502 629.36 539.643 630.82 553.343 629.89C567.053 628.96 584.053 626.08 615.523 615.17C664.163 598.3 882.702 542.78 916.672 533.97C971.742 519.69 996.633 508.5 1004.19 503.39C1011.76 498.27 1014.62 490.54 991.033 484.22L895.963 458.75V458.74Z" fill="#001230"/>
</g>
<g style="mix-blend-mode:multiply" opacity="0.2">
<path d="M923.68 489.8H967.97L1031.7 472.73L989.75 461.5H923.68V489.8Z" fill="#242B52"/>
</g>
<path d="M923.68 489.8L866.38 474.45V467.75L923.68 483.11V489.8Z" fill="#444051"/>
<path d="M923.68 489.8L980.98 474.45V467.75L923.68 483.11V489.8Z" fill="#001230"/>
<path d="M923.68 485.87L860 468.8V264.09L923.68 281.16V485.87Z" fill="#E6E7E8"/>
<path d="M923.68 485.87L987.37 468.8V264.09L923.68 281.16V485.87Z" fill="#D0D2D3"/>
<path d="M987.37 264.09L923.68 247.03L860 264.09L923.68 281.16L987.37 264.09Z" fill="#7D8191"/>
<path d="M915.85 461.64L867.82 448.77V344.3L915.85 357.17V461.64Z" fill="#D0D2D3"/>
<path d="M867.82 344.3V448.77L873.43 447.27V345.8L867.82 344.3Z" fill="#B4BDC5"/>
<path d="M915.85 461.64L867.82 448.77L873.43 447.27L915.85 458.64V461.64Z" fill="white"/>
<path d="M929.92 325.92L955.92 318.96V289.6L929.92 296.56V325.92Z" fill="#001230"/>
<path d="M955.92 289.6V318.96L952.89 318.14V290.41L955.92 289.6Z" fill="#B4BDC5"/>
<path d="M929.92 325.92L955.92 318.96L952.89 318.14L929.92 324.3V325.92Z" fill="#E6E7E8"/>
<path d="M911.86 416.66L877.54 407.46V404.05L911.86 413.25V416.66Z" fill="#43596D"/>
<path d="M911.86 453.26L877.54 444.07V440.65L911.86 449.85V453.26Z" fill="#43596D"/>
<path d="M911.86 445.94L877.54 436.75V433.33L911.86 442.53V445.94Z" fill="#43596D"/>
<path d="M911.86 438.62L877.54 429.42V426.01L911.86 435.21V438.62Z" fill="#43596D"/>
<path d="M911.86 431.3L877.54 422.1V418.69L911.86 427.89V431.3Z" fill="#43596D"/>
<path d="M911.86 423.98L877.54 414.78V411.37L911.86 420.57V423.98Z" fill="#43596D"/>
<path d="M911.86 372.47L877.54 363.27V359.86L911.86 369.05V372.47Z" fill="#43596D"/>
<path d="M911.86 409.07L877.54 399.87V396.46L911.86 405.65V409.07Z" fill="#43596D"/>
<path d="M911.86 401.75L877.54 392.55V389.14L911.86 398.33V401.75Z" fill="#43596D"/>
<path d="M911.86 394.43L877.54 385.23V381.82L911.86 391.01V394.43Z" fill="#43596D"/>
<path d="M911.86 387.11L877.54 377.91V374.5L911.86 383.69V387.11Z" fill="#43596D"/>
<path d="M911.86 379.79L877.54 370.59V367.18L911.86 376.37V379.79Z" fill="#43596D"/>
<path d="M915.85 350.94L867.82 338.08V283.84L915.85 296.71V350.94Z" fill="#43596D"/>
<path d="M867.82 283.84V338.08L873.43 336.58L888.07 289.27L867.82 283.84Z" fill="#B4BDC5"/>
<path d="M915.85 350.94L867.82 338.08L873.43 336.58L915.85 347.94V350.94Z" fill="white"/>
<path d="M915.85 332.49L881.21 323.21L888.93 297.7L915.89 304.93L915.85 332.49Z" fill="#001230"/>
<path d="M923.68 278.87L860.47 261.93V185.93L923.68 202.87V278.87Z" fill="#E6E7E7"/>
<path d="M923.68 278.87L986.9 261.93V185.93L923.68 202.87V278.87Z" fill="#D0D2D3"/>
<path d="M986.9 185.93L923.68 169L860.47 185.93L923.68 202.87L986.9 185.93Z" fill="#F2F2F2"/>
<g style="mix-blend-mode:multiply" opacity="0.1">
<path d="M923.68 485.87L987.37 468.8V264.09L923.68 485.87Z" fill="#242B52"/>
</g>
<path d="M901.81 229.64L891.3 226.82V204.36L875.29 232.51L885.8 235.32V257.78L901.81 229.64Z" fill="#37FE12"/>
<path d="M942.92 307.76C972.85 314.63 973.23 373.48 973.23 439.64C973.23 491.59 1094.67 478.75 1047.07 501.22C982.6 531.65 900.75 535.51 923.68 508.45C956.06 470.23 946.99 398.75 942.89 332.91" stroke="#37FE12" stroke-width="6.13" stroke-miterlimit="10"/>
<path d="M932.39 309.67L942.91 309.22L946.99 316.31V334.47L939.49 334.84L935.99 319.93L932.44 319.29L932.39 309.67Z" fill="#43596D"/>
<path d="M882.24 327.53L880.45 327.05L880.99 325.37L882.78 325.85L882.24 327.53Z" fill="#001230"/>
<path d="M885.16 328.3L883.37 327.83L883.9 326.14L885.7 326.62L885.16 328.3Z" fill="#001230"/>
<path d="M888.07 329.08L886.28 328.6L886.82 326.92L888.61 327.4L888.07 329.08Z" fill="#001230"/>
<path d="M890.99 329.85L889.19 329.38L889.73 327.7L891.52 328.17L890.99 329.85Z" fill="#001230"/>
<path d="M893.9 330.63L892.11 330.15L892.65 328.47L894.44 328.95L893.9 330.63Z" fill="#001230"/>
<path d="M881.29 330.52L879.5 330.05L880.03 328.37L881.82 328.84L881.29 330.52Z" fill="#001230"/>
<path d="M884.2 331.3L882.41 330.82L882.95 329.14L884.74 329.62L884.2 331.3Z" fill="#001230"/>
<path d="M887.12 332.08L885.32 331.6L885.86 329.92L887.65 330.39L887.12 332.08Z" fill="#001230"/>
<path d="M890.03 332.85L888.24 332.37L888.77 330.69L890.57 331.17L890.03 332.85Z" fill="#001230"/>
<path d="M892.95 333.63L891.15 333.15L891.69 331.47L893.48 331.94L892.95 333.63Z" fill="#001230"/>
<path d="M880.33 333.52L878.54 333.05L879.07 331.36L880.87 331.84L880.33 333.52Z" fill="#001230"/>
<path d="M883.25 334.3L881.45 333.82L881.99 332.14L883.78 332.62L883.25 334.3Z" fill="#001230"/>
<path d="M886.16 335.07L884.37 334.6L884.9 332.91L886.7 333.39L886.16 335.07Z" fill="#001230"/>
<path d="M889.07 335.85L887.28 335.37L887.82 333.69L889.61 334.17L889.07 335.85Z" fill="#001230"/>
<path d="M891.99 336.62L890.2 336.15L890.73 334.47L892.53 334.94L891.99 336.62Z" fill="#001230"/>
<path d="M879.38 336.52L877.58 336.04L878.12 334.36L879.91 334.84L879.38 336.52Z" fill="#001230"/>
<path d="M882.29 337.29L880.5 336.82L881.03 335.14L882.83 335.61L882.29 337.29Z" fill="#001230"/>
<path d="M885.2 338.07L883.41 337.59L883.95 335.91L885.74 336.39L885.2 338.07Z" fill="#001230"/>
<path d="M888.12 338.85L886.32 338.37L886.86 336.69L888.65 337.16L888.12 338.85Z" fill="#001230"/>
<path d="M891.03 339.62L889.24 339.14L889.78 337.46L891.57 337.94L891.03 339.62Z" fill="#001230"/>
<path d="M902.87 331.38C903.1 331.9 902.87 332.63 902.34 333.02C901.81 333.41 901.19 333.29 900.96 332.77C900.73 332.25 900.96 331.52 901.49 331.13C902.02 330.75 902.64 330.86 902.87 331.38Z" fill="#00C48B"/>
<path d="M905.72 332.16C905.95 332.68 905.72 333.41 905.19 333.8C904.66 334.18 904.04 334.07 903.81 333.55C903.58 333.03 903.81 332.3 904.34 331.91C904.87 331.53 905.49 331.64 905.72 332.16Z" fill="#00A88A"/>
<g style="mix-blend-mode:multiply" opacity="0.4">
<path d="M526.963 289.74C503.373 283.42 464.772 283.42 441.182 289.74L17.6925 403.16C-5.8975 409.48 -5.8975 419.82 17.6925 426.15L121.912 454.04C145.502 460.36 170.643 461.82 184.343 460.89C198.053 459.96 215.053 457.08 246.523 446.17C295.163 429.3 513.702 373.78 547.672 364.97C602.742 350.69 627.633 339.5 635.193 334.39C642.763 329.27 645.623 321.54 622.033 315.22L526.963 289.75V289.74Z" fill="#001230"/>
</g>
<g style="mix-blend-mode:multiply" opacity="0.2">
<path d="M554.68 320.8H598.97L662.7 303.73L620.75 292.5H554.68V320.8Z" fill="#242B52"/>
</g>
<path d="M554.68 320.8L497.38 305.45V298.75L554.68 314.11V320.8Z" fill="#444051"/>
<path d="M554.68 320.8L611.98 305.45V298.75L554.68 314.11V320.8Z" fill="#001230"/>
<path d="M554.68 316.87L491 299.8V95.0901L554.68 112.16V316.87Z" fill="#E6E7E8"/>
<path d="M554.68 316.87L618.37 299.8V95.0901L554.68 112.16V316.87Z" fill="#D0D2D3"/>
<path d="M618.37 95.0901L554.68 78.03L491 95.0901L554.68 112.16L618.37 95.0901Z" fill="#7D8191"/>
<path d="M546.85 292.64L498.82 279.77V175.3L546.85 188.17V292.64Z" fill="#D0D2D3"/>
<path d="M498.82 175.3V279.77L504.43 278.27V176.8L498.82 175.3Z" fill="#B4BDC5"/>
<path d="M546.85 292.64L498.82 279.77L504.43 278.27L546.85 289.64V292.64Z" fill="white"/>
<path d="M560.92 156.92L586.92 149.96V120.6L560.92 127.56V156.92Z" fill="#001230"/>
<path d="M586.92 120.6V149.96L583.89 149.14V121.41L586.92 120.6Z" fill="#B4BDC5"/>
<path d="M560.92 156.92L586.92 149.96L583.89 149.14L560.92 155.3V156.92Z" fill="#E6E7E8"/>
<path d="M542.86 247.66L508.54 238.46V235.05L542.86 244.25V247.66Z" fill="#43596D"/>
<path d="M542.86 284.26L508.54 275.07V271.65L542.86 280.85V284.26Z" fill="#43596D"/>
<path d="M542.86 276.94L508.54 267.75V264.33L542.86 273.53V276.94Z" fill="#43596D"/>
<path d="M542.86 269.62L508.54 260.42V257.01L542.86 266.21V269.62Z" fill="#43596D"/>
<path d="M542.86 262.3L508.54 253.1V249.69L542.86 258.89V262.3Z" fill="#43596D"/>
<path d="M542.86 254.98L508.54 245.78V242.37L542.86 251.57V254.98Z" fill="#43596D"/>
<path d="M542.86 203.47L508.54 194.27V190.86L542.86 200.05V203.47Z" fill="#43596D"/>
<path d="M542.86 240.07L508.54 230.87V227.46L542.86 236.65V240.07Z" fill="#43596D"/>
<path d="M542.86 232.75L508.54 223.55V220.14L542.86 229.33V232.75Z" fill="#43596D"/>
<path d="M542.86 225.43L508.54 216.23V212.82L542.86 222.01V225.43Z" fill="#43596D"/>
<path d="M542.86 218.11L508.54 208.91V205.5L542.86 214.69V218.11Z" fill="#43596D"/>
<path d="M542.86 210.79L508.54 201.59V198.18L542.86 207.37V210.79Z" fill="#43596D"/>
<path d="M546.85 181.94L498.82 169.08V114.84L546.85 127.71V181.94Z" fill="#43596D"/>
<path d="M498.82 114.84V169.08L504.43 167.58L519.07 120.27L498.82 114.84Z" fill="#B4BDC5"/>
<path d="M546.85 181.94L498.82 169.08L504.43 167.58L546.85 178.94V181.94Z" fill="white"/>
<path d="M546.85 163.49L512.21 154.21L519.93 128.7L546.89 135.93L546.85 163.49Z" fill="#001230"/>
<path d="M554.68 109.87L491.47 92.9299V16.9299L554.68 33.8701V109.87Z" fill="#E6E7E7"/>
<path d="M554.68 109.87L617.9 92.9299V16.9299L554.68 33.8701V109.87Z" fill="#D0D2D3"/>
<path d="M617.9 16.9299L554.68 0L491.47 16.9299L554.68 33.8701L617.9 16.9299Z" fill="#F2F2F2"/>
<g style="mix-blend-mode:multiply" opacity="0.1">
<path d="M554.68 316.87L618.37 299.8V95.0901L554.68 316.87Z" fill="#242B52"/>
</g>
<path d="M532.81 60.6401L522.3 57.8201V35.3601L506.29 63.51L516.8 66.3201V88.78L532.81 60.6401Z" fill="#37FE12"/>
<path d="M573.92 138.76C603.85 145.63 604.23 204.48 604.23 270.64C604.23 322.59 725.67 309.75 678.07 332.22C613.6 362.65 531.75 366.51 554.68 339.45C587.06 301.23 577.99 229.75 573.89 163.91" stroke="#37FE12" stroke-width="6.13" stroke-miterlimit="10"/>
<path d="M563.39 140.67L573.91 140.22L577.99 147.31V165.47L570.49 165.84L566.99 150.93L563.44 150.29L563.39 140.67Z" fill="#43596D"/>
<path d="M513.24 158.53L511.45 158.05L511.99 156.37L513.78 156.85L513.24 158.53Z" fill="#001230"/>
<path d="M516.16 159.3L514.37 158.83L514.9 157.14L516.7 157.62L516.16 159.3Z" fill="#001230"/>
<path d="M519.07 160.08L517.28 159.6L517.82 157.92L519.61 158.4L519.07 160.08Z" fill="#001230"/>
<path d="M521.99 160.85L520.19 160.38L520.73 158.7L522.52 159.17L521.99 160.85Z" fill="#001230"/>
<path d="M524.9 161.63L523.11 161.15L523.65 159.47L525.44 159.95L524.9 161.63Z" fill="#001230"/>
<path d="M512.29 161.52L510.5 161.05L511.03 159.37L512.82 159.84L512.29 161.52Z" fill="#001230"/>
<path d="M515.2 162.3L513.41 161.82L513.95 160.14L515.74 160.62L515.2 162.3Z" fill="#001230"/>
<path d="M518.12 163.08L516.32 162.6L516.86 160.92L518.65 161.39L518.12 163.08Z" fill="#001230"/>
<path d="M521.03 163.85L519.24 163.37L519.77 161.69L521.57 162.17L521.03 163.85Z" fill="#001230"/>
<path d="M523.95 164.63L522.15 164.15L522.69 162.47L524.48 162.94L523.95 164.63Z" fill="#001230"/>
<path d="M511.33 164.52L509.54 164.05L510.07 162.36L511.87 162.84L511.33 164.52Z" fill="#001230"/>
<path d="M514.25 165.3L512.45 164.82L512.99 163.14L514.78 163.62L514.25 165.3Z" fill="#001230"/>
<path d="M517.16 166.07L515.37 165.6L515.9 163.91L517.7 164.39L517.16 166.07Z" fill="#001230"/>
<path d="M520.07 166.85L518.28 166.37L518.82 164.69L520.61 165.17L520.07 166.85Z" fill="#001230"/>
<path d="M522.99 167.62L521.2 167.15L521.73 165.47L523.53 165.94L522.99 167.62Z" fill="#001230"/>
<path d="M510.38 167.52L508.58 167.04L509.12 165.36L510.91 165.84L510.38 167.52Z" fill="#001230"/>
<path d="M513.29 168.29L511.5 167.82L512.03 166.14L513.83 166.61L513.29 168.29Z" fill="#001230"/>
<path d="M516.2 169.07L514.41 168.59L514.95 166.91L516.74 167.39L516.2 169.07Z" fill="#001230"/>
<path d="M519.12 169.85L517.32 169.37L517.86 167.69L519.65 168.16L519.12 169.85Z" fill="#001230"/>
<path d="M522.03 170.62L520.24 170.14L520.78 168.46L522.57 168.94L522.03 170.62Z" fill="#001230"/>
<path d="M533.87 162.38C534.1 162.9 533.87 163.63 533.34 164.02C532.81 164.41 532.19 164.29 531.96 163.77C531.73 163.25 531.96 162.52 532.49 162.13C533.02 161.75 533.64 161.86 533.87 162.38Z" fill="#00C48B"/>
<path d="M536.72 163.16C536.95 163.68 536.72 164.41 536.19 164.8C535.66 165.18 535.04 165.07 534.81 164.55C534.58 164.03 534.81 163.3 535.34 162.91C535.87 162.53 536.49 162.64 536.72 163.16Z" fill="#00A88A"/>
<path d="M389.348 379.171L350.251 368.124L418 349L260.652 359.793L299.749 370.84L232 390L389.348 379.171Z" fill="#37FE12"/>
<path d="M744.348 552.171L705.251 541.124L773 522L615.652 532.793L654.749 543.84L587 563L744.348 552.171Z" fill="#37FE12"/>
</svg>
