<svg width="857" height="509" viewBox="0 0 857 509" fill="none" xmlns="http://www.w3.org/2000/svg">
<g style="mix-blend-mode:multiply" opacity="0.2">
<path d="M748.69 320.81H792.97L856.7 303.73L814.76 292.5H748.69V320.81Z" fill="#242B52"/>
</g>
<path d="M748.69 320.81L691.39 305.45V298.75L748.69 314.11V320.81Z" fill="#444051"/>
<path d="M748.689 320.81L805.979 305.45V298.75L748.689 314.11V320.81Z" fill="#001230"/>
<path d="M748.69 316.87L685 299.81V95.09L748.69 112.16V316.87Z" fill="#E6E7E8"/>
<path d="M748.69 316.87L812.37 299.81V95.09L748.69 112.16V316.87Z" fill="#D0D2D3"/>
<path d="M812.37 95.09L748.69 78.03L685 95.09L748.69 112.16L812.37 95.09Z" fill="#7D8191"/>
<path d="M740.86 292.64L692.83 279.77V175.3L740.86 188.17V292.64Z" fill="#D0D2D3"/>
<path d="M692.83 175.3V279.77L698.43 278.27V176.8L692.83 175.3Z" fill="#B4BDC5"/>
<path d="M740.86 292.64L692.83 279.77L698.43 278.27L740.86 289.64V292.64Z" fill="white"/>
<path d="M754.93 156.92L780.92 149.96V120.6L754.93 127.56V156.92Z" fill="#001230"/>
<path d="M780.92 120.6V149.96L777.89 149.14V121.41L780.92 120.6Z" fill="#B4BDC5"/>
<path d="M754.93 156.92L780.92 149.96L777.89 149.14L754.93 155.3V156.92Z" fill="#E6E7E8"/>
<path d="M736.87 247.66L702.55 238.46V235.05L736.87 244.25V247.66Z" fill="#43596D"/>
<path d="M736.87 284.26L702.55 275.07V271.65L736.87 280.85V284.26Z" fill="#43596D"/>
<path d="M736.87 276.94L702.55 267.75V264.33L736.87 273.53V276.94Z" fill="#43596D"/>
<path d="M736.87 269.62L702.55 260.43V257.01L736.87 266.21V269.62Z" fill="#43596D"/>
<path d="M736.87 262.3L702.55 253.11V249.69L736.87 258.89V262.3Z" fill="#43596D"/>
<path d="M736.87 254.98L702.55 245.78V242.37L736.87 251.57V254.98Z" fill="#43596D"/>
<path d="M736.87 203.47L702.55 194.27V190.86L736.87 200.05V203.47Z" fill="#43596D"/>
<path d="M736.87 240.07L702.55 230.87V227.46L736.87 236.65V240.07Z" fill="#43596D"/>
<path d="M736.87 232.75L702.55 223.55V220.14L736.87 229.33V232.75Z" fill="#43596D"/>
<path d="M736.87 225.43L702.55 216.23V212.82L736.87 222.01V225.43Z" fill="#43596D"/>
<path d="M736.87 218.11L702.55 208.91V205.5L736.87 214.69V218.11Z" fill="#43596D"/>
<path d="M736.87 210.79L702.55 201.59V198.18L736.87 207.37V210.79Z" fill="#43596D"/>
<path d="M740.86 181.95L692.83 169.08V114.84L740.86 127.71V181.95Z" fill="#43596D"/>
<path d="M692.83 114.84V169.08L698.43 167.58L713.07 120.27L692.83 114.84Z" fill="#B4BDC5"/>
<path d="M740.86 181.95L692.83 169.08L698.43 167.58L740.86 178.94V181.95Z" fill="white"/>
<path d="M740.86 163.5L706.22 154.21L713.94 128.7L740.89 135.93L740.86 163.5Z" fill="#001230"/>
<path d="M748.69 109.87L685.47 92.9301V16.9401L748.69 33.87V109.87Z" fill="#E6E7E7"/>
<path d="M748.689 109.87L811.899 92.9301V16.9401L748.689 33.87V109.87Z" fill="#D0D2D3"/>
<path d="M811.9 16.9401L748.69 0L685.47 16.9401L748.69 33.87L811.9 16.9401Z" fill="#F2F2F2"/>
<g style="mix-blend-mode:multiply" opacity="0.1">
<path d="M748.69 316.87L812.37 299.81V95.09L748.69 316.87Z" fill="#242B52"/>
</g>
<path d="M726.81 60.64L716.3 57.8201V35.36L700.29 63.51L710.81 66.3201V88.78L726.81 60.64Z" fill="#37FE12"/>
<path d="M707.25 158.53L705.46 158.05L705.99 156.37L707.79 156.85L707.25 158.53Z" fill="#001230"/>
<path d="M710.16 159.3L708.37 158.83L708.91 157.15L710.7 157.62L710.16 159.3Z" fill="#001230"/>
<path d="M713.08 160.08L711.28 159.6L711.82 157.92L713.61 158.4L713.08 160.08Z" fill="#001230"/>
<path d="M715.99 160.85L714.2 160.38L714.74 158.7L716.53 159.17L715.99 160.85Z" fill="#001230"/>
<path d="M718.909 161.63L717.109 161.15L717.649 159.47L719.439 159.95L718.909 161.63Z" fill="#001230"/>
<path d="M706.29 161.53L704.5 161.05L705.04 159.37L706.83 159.84L706.29 161.53Z" fill="#001230"/>
<path d="M709.21 162.3L707.41 161.82L707.95 160.14L709.74 160.62L709.21 162.3Z" fill="#001230"/>
<path d="M712.12 163.08L710.33 162.6L710.86 160.92L712.66 161.4L712.12 163.08Z" fill="#001230"/>
<path d="M715.04 163.85L713.24 163.37L713.78 161.69L715.57 162.17L715.04 163.85Z" fill="#001230"/>
<path d="M717.95 164.63L716.16 164.15L716.69 162.47L718.49 162.95L717.95 164.63Z" fill="#001230"/>
<path d="M705.34 164.52L703.54 164.05L704.08 162.37L705.87 162.84L705.34 164.52Z" fill="#001230"/>
<path d="M708.25 165.3L706.46 164.82L706.99 163.14L708.79 163.62L708.25 165.3Z" fill="#001230"/>
<path d="M711.17 166.07L709.37 165.6L709.91 163.92L711.7 164.39L711.17 166.07Z" fill="#001230"/>
<path d="M714.08 166.85L712.29 166.37L712.82 164.69L714.62 165.17L714.08 166.85Z" fill="#001230"/>
<path d="M716.99 167.62L715.2 167.15L715.74 165.47L717.53 165.94L716.99 167.62Z" fill="#001230"/>
<path d="M704.38 167.52L702.59 167.04L703.12 165.36L704.92 165.84L704.38 167.52Z" fill="#001230"/>
<path d="M707.29 168.3L705.5 167.82L706.04 166.14L707.83 166.61L707.29 168.3Z" fill="#001230"/>
<path d="M710.21 169.07L708.42 168.59L708.95 166.91L710.75 167.39L710.21 169.07Z" fill="#001230"/>
<path d="M713.12 169.85L711.33 169.37L711.87 167.69L713.66 168.17L713.12 169.85Z" fill="#001230"/>
<path d="M716.04 170.62L714.24 170.14L714.78 168.46L716.57 168.94L716.04 170.62Z" fill="#001230"/>
<path d="M727.88 162.38C728.11 162.9 727.88 163.63 727.35 164.02C726.82 164.4 726.2 164.29 725.97 163.77C725.74 163.25 725.97 162.52 726.5 162.13C727.03 161.74 727.65 161.86 727.88 162.38Z" fill="#00C48B"/>
<path d="M730.72 163.16C730.95 163.68 730.72 164.41 730.19 164.8C729.66 165.19 729.04 165.07 728.81 164.55C728.58 164.03 728.81 163.3 729.34 162.91C729.87 162.52 730.49 162.64 730.72 163.16Z" fill="#00A88A"/>
<path d="M83.8281 220.922L98.1781 224.772C99.9581 225.252 101.198 226.862 101.198 228.712V264.512C101.198 266.582 99.7381 268.362 97.7081 268.752L94.8581 269.312C94.1081 269.462 93.3381 269.432 92.5981 269.242L79.8581 265.892C77.3181 265.222 75.5381 262.922 75.5381 260.292V228.202C75.5381 225.862 76.5781 223.642 78.3681 222.132C79.8781 220.862 81.9181 220.412 83.8281 220.922Z" fill="#303A66"/>
<mask id="mask0_83_10035" style="mask-type:luminance" maskUnits="userSpaceOnUse" x="75" y="220" width="27" height="50">
<path d="M83.8281 220.922L98.1781 224.772C99.9581 225.252 101.198 226.862 101.198 228.712V264.512C101.198 266.582 99.7381 268.362 97.7081 268.752L94.8581 269.312C94.1081 269.462 93.3381 269.432 92.5981 269.242L79.8581 265.892C77.3181 265.222 75.5381 262.922 75.5381 260.292V228.202C75.5381 225.862 76.5781 223.642 78.3681 222.132C79.8781 220.862 81.9181 220.412 83.8281 220.922Z" fill="white"/>
</mask>
<g mask="url(#mask0_83_10035)">
<path opacity="0.1" d="M99.988 271.242H95.248V230.042L99.988 227.762V271.242Z" fill="black"/>
</g>
<g style="mix-blend-mode:multiply" opacity="0.1">
<path d="M615.888 318.522C592.298 312.202 553.698 312.202 530.108 318.522L65.088 443.122C41.498 449.442 41.498 459.782 65.088 466.112L204.378 503.432C227.968 509.752 266.818 510.782 290.708 505.712C398.948 485.412 658.978 413.692 748.218 380.372C778.518 369.052 755.818 355.472 732.228 349.152L615.888 318.522Z" fill="#001230"/>
</g>
<g style="mix-blend-mode:multiply" opacity="0.4">
<path d="M579.438 329.022C555.848 322.702 517.248 322.702 493.658 329.022L70.1681 442.442C46.5781 448.762 46.5781 459.102 70.1681 465.432L174.388 493.322C197.978 499.642 223.118 501.102 236.818 500.172C250.528 499.242 267.528 496.362 298.998 485.452C347.638 468.582 566.178 413.062 600.148 404.252C655.218 389.972 680.108 378.782 687.668 373.672C695.238 368.552 698.098 360.822 674.508 354.502L579.438 329.032V329.022Z" fill="#001230"/>
</g>
<path d="M549.728 332.912C542.668 359.282 552.578 384.842 571.878 390.012C591.178 395.182 612.548 378.002 619.618 351.632C626.678 325.262 616.768 299.702 597.468 294.532C578.168 289.362 556.798 306.542 549.728 332.912Z" fill="#001230"/>
<path d="M571.846 390.025L600.331 397.657L625.915 302.175L597.43 294.543L571.846 390.025Z" fill="#001230"/>
<path d="M197.437 427.392C190.377 453.762 200.287 479.322 219.587 484.492C238.887 489.662 260.257 472.482 267.327 446.112C274.387 419.742 264.477 394.182 245.177 389.012C225.877 383.842 204.507 401.022 197.437 427.392Z" fill="#001230"/>
<path d="M219.625 484.493L248.11 492.126L273.695 396.644L245.209 389.011L219.625 484.493Z" fill="#001230"/>
<path d="M654.208 346.472L618.478 342.282L337.218 413.012L301.578 458.022L224.258 445.452L231.878 379.812L672.528 261.212L674.528 309.702L654.208 346.472Z" fill="#001230"/>
<path d="M697.748 261.222C697.748 261.222 686.488 82.4322 677.268 79.4022C655.858 71.9322 520.648 32.2422 509.668 35.1522C498.688 38.0722 239.978 107.462 183.418 124.262C156.588 132.232 136.228 163.252 136.228 163.252L70.5379 268.262C70.5379 268.262 43.0579 292.932 21.2179 312.912C11.1379 322.132 11.0979 324.972 9.32791 337.602C8.97791 340.122 2.91792 351.152 2.47792 353.702C-2.67208 383.812 0.667916 412.252 8.23792 432.242C14.9979 450.062 133.218 478.452 168.338 480.432C183.358 481.272 199.638 478.832 212.228 475.352C211.378 462.002 211.938 449.252 214.808 434.852C221.418 401.682 249.188 379.452 272.118 383.222C293.968 386.802 308.808 410.802 301.568 458.022L563.498 380.072C563.498 380.072 564.528 352.362 568.558 336.122C576.688 303.362 604.098 283.242 626.388 289.212C647.408 294.842 657.788 318.372 654.188 346.472C661.438 339.802 680.898 333.902 692.498 320.312C696.698 315.402 702.988 300.702 702.968 275.362C702.968 267.472 697.738 261.222 697.738 261.222H697.748Z" fill="#E9E9EA"/>
<path opacity="0.05" d="M134.598 460.572C139.148 459.472 126.168 438.132 124.238 434.262C107.838 401.422 79.2378 399.052 50.0178 391.212C23.8078 384.182 20.4978 397.782 17.7778 404.732C16.7278 407.412 13.0578 420.902 16.3778 423.812C24.0878 430.592 41.1578 438.732 65.4378 445.812C91.7078 453.472 129.328 461.842 134.608 460.562L134.598 460.572Z" fill="black"/>
<path d="M285.348 202.852C224.248 193.402 159.448 174.882 136.228 163.252C136.228 163.252 89.2381 237.192 70.5381 268.262C92.0681 285.992 180.558 307.592 230.318 311.072L285.348 202.852Z" fill="#00123E"/>
<path d="M249.578 312.212L393.148 271.492V186.542L312.768 208.262C304.498 210.522 297.578 216.202 293.748 223.872L249.588 312.222L249.578 312.212Z" fill="#00123E"/>
<path opacity="0.1" d="M24.9576 434.812C41.4276 443.932 93.4176 459.212 117.958 461.602C135.058 463.272 133.878 455.502 123.508 453.492C92.0976 447.412 42.9476 434.052 24.7076 425.942C18.1776 423.042 18.6176 431.302 24.9576 434.812Z" fill="black"/>
<g opacity="0.1">
<path d="M291.928 107.462L283.068 105.082L484.928 50.9923L493.788 53.3723L291.928 107.462Z" fill="black"/>
<path d="M317.238 114.242L308.368 111.862L510.228 57.7722L519.098 60.1522L317.238 114.242Z" fill="black"/>
<path d="M342.539 121.022L333.679 118.642L535.539 64.5522L544.399 66.9323L342.539 121.022Z" fill="black"/>
<path d="M367.849 127.802L358.979 125.422L560.839 71.3323L569.709 73.7123L367.849 127.802Z" fill="black"/>
<path d="M393.148 134.582L384.278 132.202L586.138 78.1123L595.008 80.4923L393.148 134.582Z" fill="black"/>
</g>
<path d="M388.727 268.122L381.647 270.022V196.172L388.727 194.272V268.122Z" fill="#303A66"/>
<path d="M75.5481 264.872C94.1781 275.202 161.458 296.972 230.328 305.142C230.328 305.142 241.388 289.072 234.108 283.802C209.598 266.042 171.848 274.532 143.648 268.082C78.9981 253.302 75.5381 264.872 75.5381 264.872H75.5481Z" fill="#303A66"/>
<path d="M163.878 202.192L197.638 211.242L205.388 198.172L171.628 189.132L163.878 202.192Z" fill="#303A66"/>
<path d="M260.928 304.192L279.488 298.392L276.628 272.782L260.928 304.192Z" fill="#303A66"/>
<path opacity="0.1" d="M260.928 304.192L385.188 195.422L315.618 214.222C308.458 216.182 302.468 221.092 299.148 227.732L260.928 304.202V304.192Z" fill="white"/>
<mask id="mask1_83_10035" style="mask-type:luminance" maskUnits="userSpaceOnUse" x="0" y="35" width="703" height="446">
<path d="M697.748 261.222C697.748 261.222 686.488 82.4322 677.268 79.4022C655.858 71.9322 520.648 32.2422 509.668 35.1522C498.688 38.0722 239.978 107.462 183.418 124.262C156.588 132.232 136.228 163.252 136.228 163.252L70.5379 268.262C70.5379 268.262 43.0579 292.932 21.2179 312.912C11.1379 322.132 10.7979 326.462 9.32791 337.602C8.99791 340.122 2.91792 351.152 2.47792 353.702C-2.67208 383.812 0.667916 412.252 8.23792 432.242C14.9979 450.062 133.218 478.452 168.338 480.432C183.358 481.272 199.638 478.832 212.228 475.352C211.378 462.002 211.938 449.252 214.808 434.852C221.418 401.682 249.188 379.452 272.118 383.222C293.968 386.802 308.808 410.802 301.568 458.022L563.498 380.072C563.498 380.072 564.528 352.362 568.558 336.122C576.688 303.362 604.098 283.242 626.388 289.212C647.408 294.842 657.788 318.372 654.188 346.472C661.438 339.802 680.898 333.902 692.498 320.312C696.698 315.402 702.988 300.702 702.968 275.362C702.968 267.472 697.738 261.222 697.738 261.222H697.748Z" fill="white"/>
</mask>
<g mask="url(#mask1_83_10035)">
<path opacity="0.1" d="M693.788 75.3623C693.788 75.3623 354.338 167.752 339.458 173.542C324.578 179.332 308.378 188.012 294.378 207.902C280.378 227.792 249.588 289.772 238.638 308.502C229.158 324.722 203.388 344.952 190.208 353.242C173.968 363.452 192.568 365.632 182.248 378.552C136.938 435.252 183.588 483.252 151.658 478.532C139.018 476.662 158.138 502.012 163.878 498.852C169.618 495.702 717.388 342.282 717.388 342.282L693.788 75.3623Z" fill="#001230"/>
<path opacity="0.1" d="M198.508 115.662C168.338 137.902 156.068 149.852 112.718 288.492C67.328 301.052 51.878 304.192 -0.00195312 324.182L140.728 124.952L198.508 115.662Z" fill="white"/>
</g>
<path opacity="0.05" d="M295.398 358.192C417.678 322.282 575.188 275.202 693.788 236.572V262.562L658.988 277.062C658.988 277.062 639.888 279.312 615.798 275.202C606.828 273.672 584.048 281.802 569.108 305.732C555.978 326.752 554.928 367.842 540.798 372.852C525.638 378.222 315.388 440.582 315.388 440.582C311.498 418.892 310.268 398.382 293.938 381.662C283.878 371.362 287.568 360.492 295.378 358.202L295.398 358.192Z" fill="black"/>
<path opacity="0.1" d="M680.858 215.542L221.888 346.902L221.798 341.392C221.768 339.482 223.018 337.782 224.858 337.252L675.408 208.292C678.078 207.522 680.748 209.502 680.798 212.282L680.848 215.522L680.858 215.542Z" fill="black"/>
<path opacity="0.3" d="M677.798 225.082L227.248 354.042C224.578 354.812 221.908 352.832 221.858 350.052L221.808 346.812L680.778 215.452L680.868 220.962C680.898 222.872 679.648 224.572 677.808 225.102L677.798 225.082Z" fill="white"/>
<path opacity="0.05" d="M207.498 419.182C202.918 432.272 200.128 446.192 199.508 461.122C199.278 466.672 195.868 470.632 192.248 469.622C183.508 467.202 176.018 462.892 170.618 455.402C167.498 451.062 167.618 443.532 170.888 439.452C180.628 427.282 191.518 418.452 203.118 411.722C206.148 409.962 209.028 414.842 207.508 419.182H207.498Z" fill="black"/>
<path opacity="0.05" d="M408.897 262.802L525.087 229.712L523.597 156.552L409.367 187.232L408.897 262.802Z" fill="black"/>
<path opacity="0.05" d="M532.328 227.272L654.818 192.632C658.958 191.462 661.918 187.822 662.218 183.532L666.978 115.662L532.798 153.122L532.328 227.262V227.272Z" fill="black"/>
<path d="M646.728 226.652L528.718 260.142V249.892L646.728 216.402V226.652Z" fill="#43596D"/>
<path d="M285.348 202.852C285.348 202.852 303.898 171.492 329.598 163.562C355.288 155.632 658.988 74.1722 658.988 74.1722" stroke="#231F32" stroke-width="0.72" stroke-miterlimit="10"/>
<path d="M695.828 233.002C695.828 233.002 234.258 371.442 218.428 376.262C209.858 378.872 190.208 361.162 190.208 361.162" stroke="#231F32" stroke-width="0.72" stroke-miterlimit="10"/>
<path d="M244.248 107.102C244.248 107.102 382.478 144.142 391.148 146.462C399.818 148.782 402.338 152.892 402.988 162.162C403.648 171.442 403.868 183.642 403.868 183.642" stroke="#231F32" stroke-width="0.72" stroke-miterlimit="10"/>
<path d="M230.318 311.402C230.318 311.402 230.828 319.742 224.248 326.312C221.258 329.302 199.568 348.802 188.598 354.062C172.058 361.992 155.268 362.212 135.548 359.822C114.008 357.202 5.78766 332.552 15.5577 319.362" stroke="#231F32" stroke-width="0.72" stroke-miterlimit="10"/>
<path d="M528.718 149.852V376.642L403.868 414.752V183.642" stroke="#231F32" stroke-width="0.72" stroke-miterlimit="10"/>
<path d="M393.148 186.542V417.992L315.398 440.572C308.928 392.602 298.188 383.512 287.168 376.882C282.618 374.142 279.608 369.442 279.068 364.162L269.598 272.162" stroke="#231F32" stroke-width="0.72" stroke-miterlimit="10"/>
<path d="M312.998 208.232L670.828 111.412L666.708 182.432C666.298 189.412 661.518 195.372 654.788 197.282L249.578 312.222L293.638 224.072C297.538 216.272 304.578 210.512 312.998 208.232Z" stroke="#231F32" stroke-width="0.72" stroke-miterlimit="10"/>
<path d="M5.79785 426.252C13.0279 436.452 106.308 463.732 150.558 467.112C167.058 468.372 185.138 464.942 199.808 461.082C204.698 459.792 209.208 458.452 213.158 457.232" stroke="#231F32" stroke-width="0.72" stroke-miterlimit="10"/>
<path d="M270.568 269.482L284.918 273.332C286.698 273.812 287.938 275.422 287.938 277.272V313.072C287.938 315.142 286.478 316.922 284.448 317.312L281.598 317.872C280.848 318.022 280.078 317.992 279.338 317.802L266.598 314.452C264.058 313.782 262.278 311.482 262.278 308.852V276.762C262.278 274.422 263.308 272.202 265.108 270.692C266.618 269.422 268.658 268.972 270.568 269.482Z" fill="#303A66"/>
<mask id="mask2_83_10035" style="mask-type:luminance" maskUnits="userSpaceOnUse" x="262" y="269" width="26" height="49">
<path d="M270.568 269.482L284.918 273.332C286.698 273.812 287.938 275.422 287.938 277.272V313.072C287.938 315.142 286.478 316.922 284.448 317.312L281.598 317.872C280.848 318.022 280.078 317.992 279.338 317.802L266.598 314.452C264.058 313.782 262.278 311.482 262.278 308.852V276.762C262.278 274.422 263.308 272.202 265.108 270.692C266.618 269.422 268.658 268.972 270.568 269.482Z" fill="white"/>
</mask>
<g mask="url(#mask2_83_10035)">
<path opacity="0.1" d="M286.718 319.812H281.988V278.612L286.718 276.332V319.812Z" fill="black"/>
</g>
<path d="M130.778 358.282C95.5583 351.392 64.0583 343.702 38.7783 334.672L39.8283 353.052C61.6783 360.582 90.5483 367.372 122.438 373.842L130.778 358.282Z" fill="#E9E9EA"/>
<path d="M84.5275 341.052C82.8575 343.932 79.5875 345.172 77.2375 343.802C74.8875 342.432 74.3375 338.982 76.0175 336.102C77.6875 333.212 80.9575 331.982 83.3075 333.352C85.6575 334.722 86.2075 338.172 84.5275 341.052Z" fill="#B4BDC5"/>
<path d="M16.4181 317.962C12.3581 324.282 26.0181 329.332 38.7681 334.672L39.8181 353.052C23.6681 347.762 12.8981 341.682 9.32812 337.602C9.32812 330.482 11.0681 322.292 16.4181 317.962Z" fill="#43596D"/>
<path d="M122.428 373.842L130.768 358.282C143.728 361.232 168.028 361.462 181.928 354.082C189.198 350.222 193.608 358.552 188.128 364.752C177.938 376.262 150.038 379.572 122.428 373.852V373.842Z" fill="#43596D"/>
<path d="M225.168 434.822C218.108 461.182 228.018 486.752 247.318 491.922C266.618 497.092 287.988 479.912 295.058 453.542C302.118 427.172 292.208 401.612 272.908 396.442C253.608 391.272 232.238 408.452 225.168 434.822Z" fill="#303A66"/>
<path d="M234.028 437.192C228.758 456.872 236.158 475.962 250.568 479.822C264.978 483.682 280.928 470.852 286.208 451.172C291.478 431.492 284.078 412.402 269.668 408.542C255.258 404.682 239.308 417.512 234.028 437.192Z" fill="#E9E9EA"/>
<path d="M275.788 442.582L282.388 453.002C284.198 455.862 281.658 460.852 278.518 460.602L267.078 459.702C265.718 459.592 264.248 460.572 263.368 462.182L256.008 475.662C253.988 479.352 249.878 478.812 249.748 474.832L249.278 460.322C249.218 458.592 248.318 457.302 246.988 457.052L235.838 454.962C232.778 454.392 232.778 449.062 235.838 446.852L246.988 438.782C248.318 437.822 249.218 436.042 249.278 434.282L249.748 419.512C249.878 415.462 253.988 412.712 256.008 415.332L263.368 424.862C264.248 426.002 265.708 426.192 267.078 425.352L278.518 418.312C281.658 416.382 284.198 420.012 282.388 423.842L275.788 437.792C274.998 439.452 274.998 441.352 275.788 442.592V442.582Z" fill="#242B52"/>
<path d="M254.408 442.652C253.258 446.962 254.878 451.132 258.028 451.972C261.178 452.812 264.668 450.012 265.828 445.702C266.978 441.392 265.358 437.222 262.208 436.372C259.058 435.532 255.568 438.332 254.408 442.642V442.652Z" fill="#E9E9EA"/>
<path d="M577.458 340.352C570.398 366.712 580.308 392.282 599.608 397.452C618.908 402.622 640.278 385.442 647.348 359.072C654.408 332.702 644.498 307.142 625.198 301.972C605.898 296.802 584.528 313.982 577.458 340.352Z" fill="#303A66"/>
<path d="M586.318 342.722C581.048 362.402 588.448 381.492 602.858 385.352C617.268 389.212 633.218 376.382 638.498 356.702C643.768 337.022 636.368 317.932 621.958 314.072C607.548 310.212 591.598 323.042 586.318 342.722Z" fill="#E9E9EA"/>
<path d="M628.078 348.102L634.678 358.522C636.488 361.382 633.948 366.372 630.808 366.122L619.368 365.222C618.008 365.112 616.538 366.092 615.658 367.702L608.298 381.182C606.278 384.872 602.168 384.332 602.038 380.352L601.568 365.842C601.508 364.112 600.608 362.822 599.278 362.572L588.128 360.482C585.068 359.912 585.068 354.582 588.128 352.372L599.278 344.302C600.608 343.342 601.508 341.562 601.568 339.802L602.038 325.032C602.168 320.982 606.278 318.232 608.298 320.842L615.658 330.372C616.538 331.512 617.998 331.702 619.368 330.862L630.808 323.822C633.948 321.892 636.488 325.522 634.678 329.352L628.078 343.302C627.288 344.962 627.288 346.862 628.078 348.102Z" fill="#242B52"/>
<path d="M606.698 348.182C605.548 352.492 607.168 356.662 610.318 357.502C613.468 358.342 616.958 355.542 618.118 351.232C619.268 346.922 617.648 342.752 614.498 341.902C611.348 341.062 607.858 343.862 606.698 348.172V348.182Z" fill="#E9E9EA"/>
<path d="M385.488 316.412L378.408 321.762V289.162L385.488 283.802V316.412Z" fill="#43596D"/>
<path d="M416.708 307.812L409.628 313.162V280.562L416.708 275.202V307.812Z" fill="#43596D"/>
<path d="M692.298 187.062L695.828 233.002L685.288 236.162L684.078 200.272C683.898 194.942 686.778 189.982 691.488 187.482L692.298 187.052V187.062Z" fill="#303A66"/>
<path d="M764.668 140.312C794.378 147.122 794.988 234.722 801.338 288.722C808.708 351.402 782.628 376.822 731.458 393.552C701.508 403.342 642.318 420.932 615.558 414.312C568.348 402.622 569.498 338.242 560.218 322.962" stroke="#37FE12" stroke-width="6.13" stroke-miterlimit="10"/>
<path d="M540.418 303.692L551.268 300.672C552.768 300.252 554.048 301.432 553.948 303.152L553.728 316.882C553.648 318.222 552.748 319.452 551.568 319.802L540.958 322.972C539.478 323.412 538.178 322.292 538.228 320.602V306.732C538.248 305.342 539.198 304.042 540.418 303.702V303.692Z" fill="#001230"/>
<path d="M540.798 307.142L549.998 302.192L556.708 306.762L564.568 322.982L558.028 326.562L548.458 314.752L544.998 315.722L540.798 307.142Z" fill="#43596D"/>
<path d="M539.428 302.372L544.378 296.882C545.068 296.122 545.508 297.112 545.308 298.962L545.268 313.622C545.118 315.072 544.608 316.562 544.078 317.182L539.218 322.772C538.538 323.552 538.088 322.632 538.258 320.812L538.208 306.042C538.348 304.552 538.878 302.972 539.428 302.352V302.372Z" fill="#E9E9EA"/>
<path d="M42.5479 418.712L87.9879 430.892V411.762L42.5479 399.582V418.712Z" fill="#001230"/>
<path d="M39.6875 419.342L85.1275 431.522V412.392L39.6875 400.222V419.342Z" fill="white"/>
</svg>
