<svg width="2510" height="1133" viewBox="0 0 2510 1133" fill="none" xmlns="http://www.w3.org/2000/svg">
<path opacity="0.1" d="M1722.43 516.792H1784.82L1874.6 492.732L1815.51 476.922H1722.43V516.792Z" fill="black"/>
<path d="M1638.66 478.462L1721.71 456.202L1804.77 478.462L1721.71 500.712L1638.66 478.462Z" fill="#43596D"/>
<path d="M1676.86 466.742C1652.09 473.382 1632 457.232 1632 430.682V368.182L1721.71 344.142V406.642C1721.71 433.192 1701.63 460.102 1676.85 466.742H1676.86Z" fill="#B4BDC5"/>
<path d="M1657.22 467.182V404.682L1746.93 428.722V491.222L1657.22 467.182Z" fill="#B4BDC5"/>
<path d="M1632 430.682V368.182L1721.71 392.222V454.722L1632 430.682Z" fill="#D0D2D3"/>
<path d="M1632 368.182L1721.71 344.142L1811.43 368.182L1721.71 392.222L1632 368.182Z" fill="#F1F2F2"/>
<path d="M1721.71 516.792L1638.66 494.532V478.462L1721.71 500.712V516.792Z" fill="#444051"/>
<path d="M1721.71 516.792L1804.77 494.532V478.462L1721.71 500.712V516.792Z" fill="#001230"/>
<path d="M1766.57 490.782C1741.8 497.422 1721.71 481.272 1721.71 454.722V392.222L1811.42 368.182V430.682C1811.42 457.232 1791.34 484.142 1766.56 490.782H1766.57Z" fill="#D0D2D3"/>
<path d="M1721.71 448.812L1632 424.772V174.482L1721.71 198.522V448.812Z" fill="#E6E7E8"/>
<path d="M1721.71 448.812L1811.43 424.772V174.482L1721.71 198.522V448.812Z" fill="#D0D2D3"/>
<path d="M1811.43 174.482L1721.71 150.442L1632 174.482L1721.71 198.522L1811.43 174.482Z" fill="#7D8191"/>
<path d="M1710.68 276.522L1643.03 258.392V181.992L1710.68 200.122V276.522Z" fill="#43596D"/>
<path d="M1643.03 181.992V258.392L1650.92 256.272L1671.55 189.632L1643.03 181.992Z" fill="#B4BDC5"/>
<path d="M1710.68 276.522L1643.03 258.392L1650.92 256.272L1710.68 272.292V276.522Z" fill="#9FA8B6"/>
<path d="M1710.68 250.532L1661.89 237.452L1672.76 201.522L1710.74 211.692L1710.68 250.532Z" fill="#00123E"/>
<path d="M1663.34 243.532L1660.82 242.862L1661.57 240.492L1664.1 241.162L1663.34 243.532Z" fill="#001230"/>
<path d="M1667.45 244.622L1664.92 243.952L1665.68 241.582L1668.2 242.252L1667.45 244.622Z" fill="#001230"/>
<path d="M1671.55 245.712L1669.03 245.042L1669.78 242.672L1672.31 243.342L1671.55 245.712Z" fill="#001230"/>
<path d="M1675.66 246.802L1673.13 246.132L1673.89 243.762L1676.41 244.442L1675.66 246.802Z" fill="#001230"/>
<path d="M1679.76 247.902L1677.24 247.222L1677.99 244.862L1680.52 245.532L1679.76 247.902Z" fill="#001230"/>
<path d="M1662 247.752L1659.47 247.082L1660.22 244.712L1662.75 245.382L1662 247.752Z" fill="#001230"/>
<path d="M1666.1 248.842L1663.57 248.172L1664.33 245.802L1666.86 246.472L1666.1 248.842Z" fill="#001230"/>
<path d="M1670.21 249.932L1667.68 249.262L1668.44 246.892L1670.96 247.572L1670.21 249.932Z" fill="#001230"/>
<path d="M1674.31 251.032L1671.79 250.352L1672.54 247.992L1675.07 248.662L1674.31 251.032Z" fill="#001230"/>
<path d="M1678.42 252.122L1675.89 251.452L1676.65 249.082L1679.17 249.752L1678.42 252.122Z" fill="#001230"/>
<path d="M1660.65 251.972L1658.12 251.302L1658.88 248.932L1661.4 249.612L1660.65 251.972Z" fill="#001230"/>
<path d="M1664.75 253.062L1662.23 252.392L1662.98 250.032L1665.51 250.702L1664.75 253.062Z" fill="#001230"/>
<path d="M1668.86 254.162L1666.33 253.482L1667.09 251.122L1669.61 251.792L1668.86 254.162Z" fill="#001230"/>
<path d="M1672.96 255.252L1670.44 254.582L1671.19 252.212L1673.72 252.882L1672.96 255.252Z" fill="#001230"/>
<path d="M1677.07 256.342L1674.54 255.672L1675.3 253.302L1677.83 253.972L1677.07 256.342Z" fill="#001230"/>
<path d="M1659.3 256.202L1656.77 255.522L1657.53 253.162L1660.06 253.832L1659.3 256.202Z" fill="#001230"/>
<path d="M1663.41 257.292L1660.88 256.622L1661.64 254.252L1664.16 254.922L1663.41 257.292Z" fill="#001230"/>
<path d="M1667.51 258.382L1664.99 257.712L1665.74 255.342L1668.27 256.012L1667.51 258.382Z" fill="#001230"/>
<path d="M1671.62 259.472L1669.09 258.802L1669.85 256.432L1672.37 257.102L1671.62 259.472Z" fill="#001230"/>
<path d="M1675.72 260.562L1673.2 259.892L1673.95 257.522L1676.48 258.202L1675.72 260.562Z" fill="#001230"/>
<path d="M1692.4 248.962C1692.73 249.692 1692.4 250.732 1691.65 251.272C1690.9 251.812 1690.03 251.652 1689.7 250.922C1689.37 250.192 1689.7 249.152 1690.45 248.612C1691.2 248.072 1692.07 248.232 1692.4 248.962Z" fill="#FF2C5D"/>
<path d="M1696.41 250.052C1696.74 250.782 1696.41 251.822 1695.66 252.362C1694.91 252.902 1694.04 252.742 1693.71 252.012C1693.38 251.282 1693.71 250.242 1694.46 249.702C1695.21 249.162 1696.08 249.322 1696.41 250.052Z" fill="#00A88A"/>
<path d="M1734.62 334.502L1798.51 317.382V311.022L1734.62 328.142V334.502Z" fill="#303A66"/>
<path d="M1734.62 402.642L1798.51 385.522V379.162L1734.62 396.292V402.642Z" fill="#303A66"/>
<path d="M1734.62 389.012L1798.51 371.892V365.542L1734.62 382.662V389.012Z" fill="#303A66"/>
<path d="M1734.62 375.382L1798.51 358.262V351.912L1734.62 369.032V375.382Z" fill="#303A66"/>
<path d="M1734.62 361.752L1798.51 344.632V338.282L1734.62 355.402V361.752Z" fill="#303A66"/>
<path d="M1734.62 348.132L1798.51 331.012V324.652L1734.62 341.772V348.132Z" fill="#303A66"/>
<path d="M1743.74 251.772L1789.4 239.532V187.982L1743.74 200.212V251.772Z" fill="#001230"/>
<path d="M1789.4 187.982V239.532L1784.07 238.112V189.402L1789.4 187.982Z" fill="#B4BDC5"/>
<path d="M1743.74 251.772L1789.4 239.532L1784.07 238.112L1743.74 248.912V251.772Z" fill="#E6E7E8"/>
<path d="M1721.71 200.962L1632 176.922V69.0618L1721.71 93.1018V200.962Z" fill="#E6E7E8"/>
<path d="M1721.71 200.962L1811.43 176.922V69.0618L1721.71 93.1018V200.962Z" fill="#D0D2D3"/>
<path d="M1811.43 69.0618L1721.71 45.0318L1632 69.0618L1721.71 93.1018L1811.43 69.0618Z" fill="#F1F2F2"/>
<path d="M1721.71 100.052L1632 124.092V61.5918C1632 35.0418 1652.08 8.13173 1676.86 1.49173C1701.63 -5.14827 1721.72 11.0017 1721.72 37.5517V100.052H1721.71Z" fill="#F0F0F0"/>
<path d="M1721.71 85.6218L1632 61.5818L1691.02 0.00177002L1780.74 24.0418L1721.71 85.6218Z" fill="#F0F0F0"/>
<path d="M1811.43 124.092L1721.72 148.132V85.6317C1721.72 59.0817 1741.8 32.1718 1766.58 25.5318C1791.35 18.8918 1811.44 35.0418 1811.44 61.5918V124.092H1811.43Z" fill="#D0D2D3"/>
<path d="M1632 124.082V61.5818L1721.71 85.6218V148.122L1632 124.082Z" fill="#E6E7E8"/>
<path d="M1690.9 131.032L1676.1 127.062V95.4218L1653.55 135.072L1668.35 139.032V170.682L1690.9 131.032Z" fill="#37FE12"/>
<path d="M1783.86 121.742L1769.89 125.492V95.6418L1748.62 144.442L1762.59 140.702V170.552L1783.86 121.742Z" fill="#D0D2D3"/>
<path d="M2336.66 705.462L2419.71 683.202L2502.77 705.462L2419.71 727.712L2336.66 705.462Z" fill="#43596D"/>
<path d="M2374.86 693.742C2350.09 700.382 2330 684.232 2330 657.682V595.182L2419.71 571.142V633.642C2419.71 660.192 2399.63 687.102 2374.85 693.742H2374.86Z" fill="#B4BDC5"/>
<path d="M2355.22 694.182V631.682L2444.93 655.722V718.222L2355.22 694.182Z" fill="#B4BDC5"/>
<path d="M2330 657.682V595.182L2419.71 619.222V681.722L2330 657.682Z" fill="#D0D2D3"/>
<path d="M2330 595.182L2419.71 571.142L2509.43 595.182L2419.71 619.222L2330 595.182Z" fill="#F1F2F2"/>
<path d="M2419.71 743.792L2336.66 721.532V705.462L2419.71 727.712V743.792Z" fill="#444051"/>
<path d="M2419.71 743.792L2502.77 721.532V705.462L2419.71 727.712V743.792Z" fill="#001230"/>
<path d="M2464.57 717.782C2439.8 724.422 2419.71 708.272 2419.71 681.722V619.222L2509.42 595.182V657.682C2509.42 684.232 2489.34 711.142 2464.56 717.782H2464.57Z" fill="#D0D2D3"/>
<path d="M2419.71 675.812L2330 651.772V401.482L2419.71 425.522V675.812Z" fill="#E6E7E8"/>
<path d="M2419.71 675.812L2509.43 651.772V401.482L2419.71 425.522V675.812Z" fill="#D0D2D3"/>
<path d="M2509.43 401.482L2419.71 377.442L2330 401.482L2419.71 425.522L2509.43 401.482Z" fill="#7D8191"/>
<path d="M2408.68 503.522L2341.03 485.392V408.992L2408.68 427.122V503.522Z" fill="#43596D"/>
<path d="M2341.03 408.992V485.392L2348.92 483.272L2369.55 416.632L2341.03 408.992Z" fill="#B4BDC5"/>
<path d="M2408.68 503.522L2341.03 485.392L2348.92 483.272L2408.68 499.292V503.522Z" fill="#9FA8B6"/>
<path d="M2408.68 477.532L2359.89 464.452L2370.76 428.522L2408.74 438.692L2408.68 477.532Z" fill="#00123E"/>
<path d="M2361.34 470.532L2358.82 469.862L2359.57 467.492L2362.1 468.162L2361.34 470.532Z" fill="#001230"/>
<path d="M2365.45 471.622L2362.92 470.952L2363.68 468.582L2366.2 469.252L2365.45 471.622Z" fill="#001230"/>
<path d="M2369.55 472.712L2367.03 472.042L2367.78 469.672L2370.31 470.342L2369.55 472.712Z" fill="#001230"/>
<path d="M2373.66 473.802L2371.13 473.132L2371.89 470.762L2374.41 471.442L2373.66 473.802Z" fill="#001230"/>
<path d="M2377.76 474.902L2375.24 474.222L2375.99 471.862L2378.52 472.532L2377.76 474.902Z" fill="#001230"/>
<path d="M2360 474.752L2357.47 474.082L2358.22 471.712L2360.75 472.382L2360 474.752Z" fill="#001230"/>
<path d="M2364.1 475.842L2361.57 475.172L2362.33 472.802L2364.86 473.472L2364.1 475.842Z" fill="#001230"/>
<path d="M2368.21 476.932L2365.68 476.262L2366.44 473.892L2368.96 474.572L2368.21 476.932Z" fill="#001230"/>
<path d="M2372.31 478.032L2369.79 477.352L2370.54 474.992L2373.07 475.662L2372.31 478.032Z" fill="#001230"/>
<path d="M2376.42 479.122L2373.89 478.452L2374.65 476.082L2377.17 476.752L2376.42 479.122Z" fill="#001230"/>
<path d="M2358.65 478.972L2356.12 478.302L2356.88 475.932L2359.4 476.612L2358.65 478.972Z" fill="#001230"/>
<path d="M2362.75 480.062L2360.23 479.392L2360.98 477.032L2363.51 477.702L2362.75 480.062Z" fill="#001230"/>
<path d="M2366.86 481.162L2364.33 480.482L2365.09 478.122L2367.61 478.792L2366.86 481.162Z" fill="#001230"/>
<path d="M2370.96 482.252L2368.44 481.582L2369.19 479.212L2371.72 479.882L2370.96 482.252Z" fill="#001230"/>
<path d="M2375.07 483.342L2372.54 482.672L2373.3 480.302L2375.83 480.972L2375.07 483.342Z" fill="#001230"/>
<path d="M2357.3 483.202L2354.77 482.522L2355.53 480.162L2358.06 480.832L2357.3 483.202Z" fill="#001230"/>
<path d="M2361.41 484.292L2358.88 483.622L2359.64 481.252L2362.16 481.922L2361.41 484.292Z" fill="#001230"/>
<path d="M2365.51 485.382L2362.99 484.712L2363.74 482.342L2366.27 483.012L2365.51 485.382Z" fill="#001230"/>
<path d="M2369.62 486.472L2367.09 485.802L2367.85 483.432L2370.37 484.102L2369.62 486.472Z" fill="#001230"/>
<path d="M2373.72 487.562L2371.2 486.892L2371.95 484.522L2374.48 485.202L2373.72 487.562Z" fill="#001230"/>
<path d="M2390.4 475.962C2390.73 476.692 2390.4 477.732 2389.65 478.272C2388.9 478.812 2388.03 478.652 2387.7 477.922C2387.37 477.192 2387.7 476.152 2388.45 475.612C2389.2 475.072 2390.07 475.232 2390.4 475.962Z" fill="#FF2C5D"/>
<path d="M2394.41 477.052C2394.74 477.782 2394.41 478.822 2393.66 479.362C2392.91 479.902 2392.04 479.742 2391.71 479.012C2391.38 478.282 2391.71 477.242 2392.46 476.702C2393.21 476.162 2394.08 476.322 2394.41 477.052Z" fill="#00A88A"/>
<path d="M2432.62 561.502L2496.51 544.382V538.022L2432.62 555.142V561.502Z" fill="#303A66"/>
<path d="M2432.62 629.642L2496.51 612.522V606.162L2432.62 623.292V629.642Z" fill="#303A66"/>
<path d="M2432.62 616.012L2496.51 598.892V592.542L2432.62 609.662V616.012Z" fill="#303A66"/>
<path d="M2432.62 602.382L2496.51 585.262V578.912L2432.62 596.032V602.382Z" fill="#303A66"/>
<path d="M2432.62 588.752L2496.51 571.632V565.282L2432.62 582.402V588.752Z" fill="#303A66"/>
<path d="M2432.62 575.132L2496.51 558.012V551.652L2432.62 568.772V575.132Z" fill="#303A66"/>
<path d="M2441.74 478.772L2487.4 466.532V414.982L2441.74 427.212V478.772Z" fill="#001230"/>
<path d="M2487.4 414.982V466.532L2482.07 465.112V416.402L2487.4 414.982Z" fill="#B4BDC5"/>
<path d="M2441.74 478.772L2487.4 466.532L2482.07 465.112L2441.74 475.912V478.772Z" fill="#E6E7E8"/>
<path d="M2419.71 427.962L2330 403.922V296.062L2419.71 320.102V427.962Z" fill="#E6E7E8"/>
<path d="M2419.71 427.962L2509.43 403.922V296.062L2419.71 320.102V427.962Z" fill="#D0D2D3"/>
<path d="M2509.43 296.062L2419.71 272.032L2330 296.062L2419.71 320.102L2509.43 296.062Z" fill="#F1F2F2"/>
<path d="M2419.71 327.052L2330 351.092V288.592C2330 262.042 2350.08 235.132 2374.86 228.492C2399.63 221.852 2419.72 238.002 2419.72 264.552V327.052H2419.71Z" fill="#F0F0F0"/>
<path d="M2419.71 312.622L2330 288.582L2389.02 227.002L2478.74 251.042L2419.71 312.622Z" fill="#F0F0F0"/>
<path d="M2509.43 351.092L2419.72 375.132V312.632C2419.72 286.082 2439.8 259.172 2464.58 252.532C2489.35 245.892 2509.44 262.042 2509.44 288.592V351.092H2509.43Z" fill="#D0D2D3"/>
<path d="M2330 351.082V288.582L2419.71 312.622V375.122L2330 351.082Z" fill="#E6E7E8"/>
<path d="M2388.9 358.032L2374.1 354.062V322.422L2351.55 362.072L2366.35 366.032V397.682L2388.9 358.032Z" fill="#37FE12"/>
<path d="M2481.86 348.742L2467.89 352.492V322.642L2446.62 371.442L2460.59 367.702V397.552L2481.86 348.742Z" fill="#D0D2D3"/>
<g opacity="0.1">
<path d="M1437.24 534.828C1404.09 525.948 809.534 676.408 776.384 685.288L122.904 860.388C89.7535 869.268 89.7535 883.808 122.904 892.688L318.644 945.138C351.794 954.018 406.383 955.468 439.964 948.348C742.034 875.018 1525.24 659.688 1623.21 621.748C1665.6 605.328 1633.89 586.758 1600.74 577.878L1437.24 534.828Z" fill="#001230"/>
</g>
<g style="mix-blend-mode:multiply" opacity="0.5">
<g style="mix-blend-mode:multiply" opacity="0.5">
<path d="M1394.62 548.908C1361.47 540.028 1307.22 541.368 1274.07 550.248L130.043 859.428C96.8932 868.308 96.8932 882.848 130.043 891.728L276.493 930.918C309.643 939.798 344.973 941.858 364.233 940.548C378.493 939.578 1011.83 768.468 1349.81 674.538C1468.2 641.638 1560.52 612.988 1563.28 611.118C1573.91 603.928 1577.93 593.058 1544.78 584.178L1394.63 548.899L1394.62 548.908Z" fill="#001230"/>
</g>
</g>
<path d="M475.294 772.249C463.684 815.599 479.984 857.629 511.714 866.129C543.444 874.629 578.584 846.378 590.194 803.038C601.804 759.688 585.504 717.658 553.774 709.158C522.044 700.658 486.904 728.909 475.294 772.249Z" fill="#001230"/>
<path d="M511.741 866.134L558.569 878.681L600.63 721.709L553.802 709.161L511.741 866.134Z" fill="#001230"/>
<path d="M1161.63 588.738C1150.02 632.088 1166.32 674.118 1198.05 682.618C1229.78 691.118 1264.92 662.868 1276.53 619.528C1288.14 576.178 1271.84 534.148 1240.11 525.648C1208.38 517.148 1173.24 545.398 1161.63 588.738Z" fill="#001230"/>
<path d="M1198.03 682.636L1244.86 695.183L1286.92 538.211L1240.09 525.663L1198.03 682.636Z" fill="#001230"/>
<path d="M1333.97 624.588L1206.09 622.618L705.104 748.608L648.324 830.508L519.384 801.938L531.904 694.018L1375.74 466.918L1370.26 564.529L1333.97 624.588Z" fill="#001230"/>
<path d="M1546.31 457.208C1545.6 411.008 1550.38 117.968 1535.22 112.998C1500.02 100.708 1273.7 37.4684 1255.65 42.2584C1237.6 47.0484 304.183 297.308 153.263 337.748C108.813 349.658 44.0835 366.218 39.5835 398.888C35.6935 427.148 0.653487 737.818 0.413487 742.058C-2.66651 795.608 11.8335 834.328 31.4735 843.788C67.4535 861.108 213.213 896.618 274.083 908.958C302.913 912.778 329.683 915.658 351.303 910.118C416.683 893.348 500.624 870.108 500.624 870.108C499.224 848.148 499.164 808.199 503.874 784.529C514.734 729.989 560.403 693.448 598.103 699.638C634.023 705.528 660.243 752.889 648.333 830.529L1184.67 686.818C1184.67 686.818 1186.56 620.908 1193.18 594.218C1206.54 540.358 1251.61 507.268 1288.26 517.098C1322.81 526.358 1339.88 578.418 1333.96 624.618C1401.96 596.908 1519.56 558.728 1538.64 536.378C1545.54 528.298 1546.95 499.168 1546.31 457.228V457.208Z" fill="#E9E9EA"/>
<path opacity="0.1" d="M1196.7 552.928L640.813 701.688V695.048C640.813 692.738 642.363 690.718 644.593 690.128L1190.28 544.098C1193.52 543.228 1196.7 545.668 1196.69 549.028V552.938L1196.7 552.928Z" fill="black"/>
<path opacity="0.75" d="M1192.8 564.348L647.113 710.378C643.873 711.248 640.693 708.808 640.703 705.448V701.538L1196.59 552.779V559.418C1196.59 561.728 1195.04 563.748 1192.81 564.338L1192.8 564.348Z" fill="white"/>
<path opacity="0.1" d="M1539.01 460.638L1323.73 518.038V511.948C1323.73 509.318 1325.5 507.018 1328.05 506.338L1531.44 452.108C1535.27 451.088 1539.02 453.968 1539.02 457.928V460.638H1539.01Z" fill="black"/>
<path opacity="0.75" d="M1534.43 472.248L1330.78 526.548C1327.17 527.508 1323.62 524.788 1323.62 521.048V517.908L1538.9 460.508V466.438C1538.9 469.168 1537.06 471.558 1534.43 472.258V472.248Z" fill="white"/>
<mask id="mask0_83_10034" style="mask-type:luminance" maskUnits="userSpaceOnUse" x="0" y="42" width="1547" height="872">
<path d="M1546.31 457.208C1545.62 417.048 1550.38 117.968 1535.22 112.998C1500.02 100.708 1273.7 37.4684 1255.65 42.2584C1237.6 47.0484 304.183 297.308 153.263 337.748C108.813 349.658 44.0835 366.218 39.5835 398.888C35.6935 427.148 0.653487 737.818 0.413487 742.058C-2.66651 795.608 11.8335 834.328 31.4735 843.788C67.4535 861.108 213.213 896.618 274.083 908.958C302.913 912.778 329.683 915.658 351.303 910.118C416.683 893.348 500.624 870.108 500.624 870.108C499.224 848.148 499.164 808.199 503.874 784.529C514.734 729.989 560.403 693.448 598.103 699.638C634.023 705.528 660.243 752.889 648.333 830.529L1184.67 686.818C1184.67 686.818 1186.56 620.908 1193.18 594.218C1206.54 540.358 1251.61 507.268 1288.26 517.098C1322.81 526.358 1339.88 578.418 1333.96 624.618C1401.96 596.908 1519.56 558.728 1538.64 536.378C1545.54 528.298 1547.03 499.168 1546.31 457.228V457.208Z" fill="white"/>
</mask>
<g mask="url(#mask0_83_10034)">
<path opacity="0.1" d="M301.043 917.258C287.313 892.208 285.243 853.228 287.703 824.928C288.073 820.698 322.983 510.018 326.873 481.758C331.373 449.098 396.103 432.528 440.553 420.618C591.473 380.178 1533.62 127.528 1551.67 122.738L1615.06 511.488L1516.69 639.158L354.913 941.818L301.033 917.248L301.043 917.258Z" fill="black"/>
</g>
<path d="M19.2732 454.488L47.9132 462.158C51.4732 463.108 53.9432 466.338 53.9432 470.018V541.448C53.9432 545.578 51.0232 549.128 46.9732 549.918L41.2932 551.028C39.7932 551.318 38.2532 551.268 36.7832 550.888L11.3532 544.208C6.28316 542.878 2.74316 538.288 2.74316 533.038V468.998C2.74316 464.328 4.81316 459.898 8.38316 456.888C11.4032 454.348 15.4732 453.448 19.2732 454.468V454.488Z" fill="#303A66"/>
<mask id="mask1_83_10034" style="mask-type:luminance" maskUnits="userSpaceOnUse" x="2" y="454" width="52" height="98">
<path d="M19.2732 454.488L47.9132 462.158C51.4732 463.108 53.9432 466.338 53.9432 470.018V541.448C53.9432 545.578 51.0232 549.128 46.9732 549.918L41.2932 551.028C39.7932 551.318 38.2532 551.268 36.7832 550.888L11.3532 544.208C6.28316 542.878 2.74316 538.288 2.74316 533.038V468.998C2.74316 464.328 4.81316 459.898 8.38316 456.888C11.4032 454.348 15.4732 453.448 19.2732 454.468V454.488Z" fill="white"/>
</mask>
<g mask="url(#mask1_83_10034)">
<path opacity="0.1" d="M51.5035 554.918H42.0635V472.688L51.5035 468.158V554.918Z" fill="black"/>
</g>
<path d="M306.934 742.048L1468.29 430.858C1477.89 428.288 1484.9 420.068 1485.94 410.188L1512.37 158.358L369.374 464.708C349.234 470.108 334.504 487.368 332.334 508.108L306.924 742.038L306.934 742.048Z" fill="#00123E"/>
<path d="M52.6533 402.428L300.653 469.918C306.193 471.428 309.803 476.748 309.153 482.458L276.263 772.369C275.463 779.439 268.553 784.148 261.673 782.288L13.3133 715.318C7.75328 713.818 4.13328 708.479 4.78328 702.759L38.0233 412.328C38.8333 405.248 45.7633 400.558 52.6333 402.428H52.6533Z" fill="#00123E"/>
<path d="M330.784 518.758L304.314 764.398C303.124 775.478 313.554 784.238 324.264 781.128L343.394 775.578L342.534 524.548L330.784 518.758Z" fill="#00123E"/>
<path d="M520.884 784.468C509.274 827.818 525.574 869.848 557.304 878.348C589.034 886.848 624.174 858.598 635.784 815.258C647.394 771.908 631.094 729.878 599.364 721.378C567.634 712.878 532.494 741.128 520.884 784.468Z" fill="#303A66"/>
<path d="M619.123 810.774C627.369 779.998 615.791 750.156 593.263 744.12C570.735 738.083 545.787 758.138 537.541 788.914C529.294 819.69 540.872 849.532 563.4 855.568C585.929 861.605 610.876 841.549 619.123 810.774Z" fill="#E9E9EA"/>
<path d="M553.294 793.148C548.354 811.578 555.284 829.448 568.784 833.058C582.274 836.678 597.214 824.668 602.144 806.228C607.084 787.798 600.154 769.928 586.664 766.318C573.174 762.698 558.234 774.708 553.304 793.148H553.294Z" fill="#43596D"/>
<path d="M568.954 797.348C567.054 804.428 569.724 811.288 574.904 812.678C580.084 814.068 585.824 809.458 587.724 802.378C589.624 795.298 586.954 788.438 581.774 787.048C576.594 785.658 570.854 790.268 568.954 797.348Z" fill="#5D6E81"/>
<path d="M582.563 761.849L574.363 764.048C571.213 764.898 568.633 762.818 568.633 759.438V758.109C568.633 754.729 571.213 751.268 574.363 750.428L582.563 748.229C585.713 747.379 588.293 749.458 588.293 752.838V754.168C588.293 757.548 585.713 761.009 582.563 761.849Z" fill="#00123E"/>
<path d="M582.563 848.899L574.363 851.099C571.213 851.949 568.633 849.869 568.633 846.489V845.158C568.633 841.778 571.213 838.319 574.363 837.479L582.563 835.279C585.713 834.429 588.293 836.509 588.293 839.889V841.219C588.293 844.599 585.713 848.059 582.563 848.899Z" fill="#00123E"/>
<path d="M548.673 801.438V813.838C548.673 817.098 546.183 820.428 543.143 821.238C540.103 822.048 537.613 820.058 537.613 816.798V804.399C537.613 801.139 540.103 797.808 543.143 796.998C546.183 796.188 548.673 798.178 548.673 801.438Z" fill="#00123E"/>
<path d="M619.303 782.518V794.918C619.303 798.178 616.813 801.508 613.773 802.318C610.733 803.128 608.243 801.138 608.243 797.878V785.478C608.243 782.218 610.733 778.888 613.773 778.078C616.813 777.268 619.303 779.258 619.303 782.518Z" fill="#00123E"/>
<path d="M554.233 828.208L560.573 834.328C562.653 836.338 562.653 840.528 560.573 843.648L560.323 844.028C558.243 847.148 554.843 848.058 552.763 846.058L546.423 839.938C544.343 837.928 544.343 833.738 546.423 830.618L546.673 830.238C548.753 827.118 552.153 826.208 554.233 828.208Z" fill="#00123E"/>
<path d="M604.174 753.268L610.514 759.388C612.594 761.398 612.594 765.588 610.514 768.708L610.264 769.088C608.184 772.208 604.784 773.118 602.704 771.118L596.364 764.998C594.284 762.988 594.284 758.798 596.364 755.678L596.614 755.298C598.694 752.178 602.094 751.268 604.174 753.268Z" fill="#00123E"/>
<path d="M596.353 824.738L602.693 815.218C604.773 812.098 608.173 811.188 610.253 813.188L610.503 813.428C612.583 815.438 612.583 819.628 610.503 822.748L604.163 832.268C602.083 835.388 598.683 836.298 596.603 834.298L596.353 834.058C594.273 832.048 594.273 827.858 596.353 824.738Z" fill="#00123E"/>
<path d="M546.414 776.568L552.754 767.048C554.834 763.928 558.234 763.018 560.314 765.018L560.564 765.258C562.644 767.268 562.644 771.458 560.564 774.578L554.224 784.098C552.144 787.218 548.744 788.128 546.664 786.128L546.414 785.888C544.334 783.878 544.334 779.688 546.414 776.568Z" fill="#00123E"/>
<path d="M9.1936 752.698L261.844 820.739C265.944 821.839 268.784 825.568 268.764 829.808V832.928C268.694 845.948 256.314 855.389 243.734 851.999L16.7936 790.769C7.3236 788.209 0.6736 779.709 0.4636 769.899L0.2536 759.688C0.1536 754.968 4.6236 751.468 9.1836 752.698H9.1936Z" fill="#303A66"/>
<path opacity="0.1" d="M218.973 892.688C223.403 891.618 217.573 880.778 215.693 877.018C199.743 845.088 105.103 824.718 76.6732 817.088C51.1932 810.248 39.2632 820.478 36.6232 827.238C35.6032 829.848 32.5432 840.558 35.7732 843.398C43.2732 849.998 89.5632 861.878 113.173 868.768C138.723 876.218 213.833 893.938 218.973 892.698V892.688Z" fill="black"/>
<path d="M53.1137 800.558L195.134 838.878L208.264 806.298L46.7637 762.808L53.1137 800.558Z" fill="#303A66"/>
<path d="M124.183 797.708C124.983 802.328 122.583 806.598 118.813 807.238C115.043 807.888 111.343 804.658 110.543 800.048C109.743 795.428 112.143 791.159 115.913 790.519C119.673 789.869 123.383 793.088 124.183 797.708Z" fill="#E9E9EA"/>
<path d="M257.633 834.488C258.013 839.158 255.223 843.188 251.423 843.488C247.613 843.788 244.223 840.238 243.853 835.568C243.473 830.898 246.263 826.868 250.063 826.568C253.873 826.268 257.263 829.818 257.633 834.488Z" fill="#EE9059"/>
<path d="M239.863 829.678C240.243 834.348 237.453 838.378 233.653 838.678C229.843 838.978 226.453 835.428 226.083 830.758C225.703 826.088 228.493 822.058 232.293 821.758C236.103 821.458 239.493 825.008 239.863 829.678Z" fill="#00123E"/>
<path d="M222.083 824.868C222.463 829.538 219.673 833.568 215.873 833.868C212.063 834.168 208.673 830.618 208.303 825.948C207.923 821.278 210.713 817.248 214.513 816.948C218.323 816.648 221.713 820.198 222.083 824.868Z" fill="#00123E"/>
<path d="M57.2434 781.248C57.6234 785.918 54.8334 789.948 51.0334 790.248C47.2234 790.548 43.8334 786.998 43.4634 782.328C43.0834 777.658 45.8734 773.628 49.6734 773.328C53.4834 773.028 56.8734 776.578 57.2434 781.248Z" fill="#00123E"/>
<path d="M39.4641 776.448C39.8441 781.118 37.0541 785.148 33.2541 785.448C29.4441 785.748 26.0541 782.199 25.6841 777.529C25.3041 772.859 28.0941 768.829 31.8941 768.529C35.7041 768.229 39.0941 771.778 39.4641 776.448Z" fill="#00123E"/>
<path d="M21.6838 771.638C22.0638 776.308 19.2738 780.338 15.4738 780.638C11.6638 780.938 8.27378 777.388 7.90378 772.718C7.52378 768.048 10.3138 764.018 14.1138 763.718C17.9238 763.418 21.3138 766.968 21.6838 771.638Z" fill="#EE9059"/>
<g opacity="0.1">
<path d="M464.493 287.748L452.033 284.408L735.703 208.398L748.163 211.738L464.493 287.748Z" fill="black"/>
<path d="M500.053 297.279L487.593 293.938L771.263 217.928L783.723 221.268L500.053 297.279Z" fill="black"/>
<path d="M535.613 306.798L523.153 303.468L806.823 227.458L819.283 230.788L535.613 306.798Z" fill="black"/>
<path d="M571.173 316.328L558.713 312.988L842.383 236.978L854.843 240.318L571.173 316.328Z" fill="black"/>
<path d="M606.723 325.858L594.273 322.518L877.943 246.508L890.403 249.848L606.723 325.858Z" fill="black"/>
</g>
<g opacity="0.1">
<path d="M863.354 180.908L850.894 177.568L1134.56 101.558L1147.02 104.898L863.354 180.908Z" fill="black"/>
<path d="M898.913 190.438L886.453 187.098L1170.12 111.088L1182.58 114.428L898.913 190.438Z" fill="black"/>
<path d="M934.474 199.958L922.014 196.628L1205.68 120.618L1218.14 123.948L934.474 199.958Z" fill="black"/>
<path d="M970.033 209.488L957.573 206.148L1241.24 130.138L1253.7 133.478L970.033 209.488Z" fill="black"/>
<path d="M1005.59 219.018L993.134 215.678L1276.8 139.668L1289.26 143.008L1005.59 219.018Z" fill="black"/>
</g>
<path d="M330.783 518.758L1500.87 205.458L1499.32 220.838L328.993 537.548L330.783 518.758Z" fill="#303A66"/>
<path d="M455.084 677.968L1478.53 406.768L1478.08 410.858C1477.33 417.698 1472.45 423.378 1465.81 425.158L453.304 696.758L455.094 677.968H455.084Z" fill="#303A66"/>
<path d="M1074.11 696.658L999.674 716.608V348.468L1074.11 328.518V696.658Z" fill="#303A66"/>
<path d="M1061.82 685.568L1011.95 698.928V359.548L1061.82 346.188V685.568Z" fill="#00123E"/>
<path d="M1148.54 676.708L1074.11 696.658V328.518L1148.54 308.568V676.708Z" fill="#303A66"/>
<path d="M1136.26 665.618L1086.39 678.988V339.608L1136.26 326.248V665.618Z" fill="#00123E"/>
<path d="M1100.58 598.138L1090.63 600.808V554.978L1100.58 552.318V598.138Z" fill="#303A66"/>
<path d="M1057.58 609.788L1047.63 612.458V566.638L1057.58 563.968V609.788Z" fill="#303A66"/>
<path d="M416.963 872.738L342.523 892.688V524.548L416.963 504.598V872.738Z" fill="#303A66"/>
<path d="M404.683 861.648L354.813 875.018V535.638L404.683 522.268V861.648Z" fill="#00123E"/>
<path d="M491.404 852.788L416.964 872.738V504.598L491.404 484.648V852.788Z" fill="#303A66"/>
<path d="M479.124 841.708L429.254 855.068V515.688L479.124 502.328V841.708Z" fill="#00123E"/>
<path d="M443.884 774.378L433.934 777.048V731.228L443.884 728.558V774.378Z" fill="#303A66"/>
<path d="M400.874 786.029L390.924 788.698V742.878L400.874 740.208V786.029Z" fill="#303A66"/>
<path d="M602.543 417.178L625.013 411.158V637.668L602.543 643.688V417.178Z" fill="#303A66"/>
<path d="M1478.52 179.158L1504.33 172.758L1478.48 407.188C1477.6 415.158 1469.94 420.548 1462.14 418.678L1457.5 417.568L1478.52 179.158Z" fill="#303A66"/>
<path d="M903.693 334.538L926.173 328.518V555.029L903.693 561.048V334.538Z" fill="#303A66"/>
<path d="M1214.44 250.968L1236.91 244.948V471.458L1214.44 477.478V250.968Z" fill="#303A66"/>
<path d="M889.953 364.538L635.823 432.638V400.198L889.953 332.098V364.538Z" fill="#303A66"/>
<path d="M1535.22 112.988C1517.17 117.778 575.023 370.428 424.103 410.868C379.653 422.778 314.923 439.338 310.423 472.008C306.533 500.268 271.623 810.948 271.253 815.178C268.793 843.478 270.863 882.458 284.593 907.508" stroke="#231F32" stroke-width="0.96" stroke-miterlimit="10"/>
<path d="M650.643 810.128L1186.24 666.608" stroke="#231F32" stroke-width="0.96" stroke-miterlimit="10"/>
<path d="M342.523 892.688L499.863 850.529" stroke="#231F32" stroke-width="0.96" stroke-miterlimit="10"/>
<path d="M1317.62 540.048L1546.5 478.718" stroke="#231F32" stroke-width="0.96" stroke-miterlimit="10"/>
<path d="M1148.54 585.348L1201.3 571.218" stroke="#231F32" stroke-width="0.96" stroke-miterlimit="10"/>
<path d="M633.123 723.458L998.273 625.618" stroke="#231F32" stroke-width="0.96" stroke-miterlimit="10"/>
<path d="M330.783 527.428L1506.95 212.268" stroke="#231F32" stroke-width="0.96" stroke-miterlimit="10"/>
<path d="M613.783 399.328V659.678" stroke="#231F32" stroke-width="0.96" stroke-miterlimit="10"/>
<path d="M914.933 318.488V739.308" stroke="#231F32" stroke-width="0.96" stroke-miterlimit="10"/>
<path d="M1225.67 236.618V495.868" stroke="#231F32" stroke-width="0.96" stroke-miterlimit="10"/>
<path d="M667.043 705.038L646.973 710.418C643.803 711.268 640.693 708.878 640.693 705.598V701.578L667.043 694.518V705.038Z" fill="#EE9059"/>
<path d="M987.484 619.228L961.134 626.288V615.808L987.484 608.748V619.228Z" fill="#EE9059"/>
<path d="M1534.52 472.188L1512.66 478.048V467.558L1539.01 460.498V466.348C1539.01 469.088 1537.17 471.488 1534.52 472.198V472.188Z" fill="#EE9059"/>
<path d="M926.183 209.758L878.473 196.978C871.623 195.138 860.503 195.138 853.653 196.978L805.943 209.758C799.093 211.598 799.093 214.568 805.943 216.408L853.653 229.188C860.503 231.028 871.623 231.028 878.473 229.188L926.183 216.408C933.033 214.568 933.033 211.598 926.183 209.758Z" fill="#B4BDC5"/>
<path d="M931.323 208.568H800.793V213.078H931.323V208.568Z" fill="#B4BDC5"/>
<path d="M926.183 205.248L878.473 192.468C871.623 190.628 860.503 190.628 853.653 192.468L805.943 205.248C799.093 207.088 799.093 210.058 805.943 211.898L853.653 224.678C860.503 226.518 871.623 226.518 878.473 224.678L926.183 211.898C933.033 210.058 933.033 207.088 926.183 205.248Z" fill="#D0D2D3"/>
<path d="M523.114 313.828L475.404 301.048C468.554 299.208 457.434 299.208 450.584 301.048L402.874 313.828C396.024 315.668 396.024 318.638 402.874 320.478L450.584 333.258C457.434 335.098 468.554 335.098 475.404 333.258L523.114 320.478C529.964 318.638 529.964 315.668 523.114 313.828Z" fill="#B4BDC5"/>
<path d="M528.263 312.638H397.733V317.148H528.263V312.638Z" fill="#B4BDC5"/>
<path d="M523.114 309.318L475.404 296.538C468.554 294.698 457.434 294.698 450.584 296.538L402.874 309.318C396.024 311.158 396.024 314.128 402.874 315.968L450.584 328.748C457.434 330.588 468.554 330.588 475.404 328.748L523.114 315.968C529.964 314.128 529.964 311.158 523.114 309.318Z" fill="#D0D2D3"/>
<g opacity="0.1">
<path d="M1432.18 530.638L1375.74 545.758V539.258L1432.18 524.138V530.638Z" fill="black"/>
<path d="M1432.18 540.648L1375.74 555.779V549.279L1432.18 534.158V540.648Z" fill="black"/>
<path d="M1432.18 550.668L1375.74 565.788V559.298L1432.18 544.168V550.668Z" fill="black"/>
<path d="M1432.18 560.678L1375.74 575.808V569.308L1432.18 554.188V560.678Z" fill="black"/>
<path d="M1432.18 570.698L1375.74 585.818V579.328L1432.18 564.198V570.698Z" fill="black"/>
</g>
<path d="M297.094 525.128L302.094 481.029L46.3537 411.428L41.3037 455.508L297.094 525.128Z" fill="#303A66"/>
<path d="M16.4731 672.488L12.4131 707.928L268.523 776.988L272.543 741.538L16.4731 672.488Z" fill="#303A66"/>
<path opacity="0.1" d="M57.5432 411.338L293.913 475.668C299.193 477.108 302.633 482.178 302.023 487.618L20.0632 709.558C14.7632 708.128 11.3132 703.038 11.9332 697.588L43.6132 420.778C44.3832 414.028 50.9832 409.558 57.5432 411.338Z" fill="white"/>
<path opacity="0.1" d="M315.633 744.718L1491.32 175.438L376.533 474.218C356.883 479.488 342.523 496.318 340.413 516.548L315.623 744.708L315.633 744.718Z" fill="white"/>
<path d="M333.464 538.818L362.104 546.489C365.664 547.439 368.134 550.668 368.134 554.348V625.779C368.134 629.909 365.214 633.459 361.164 634.249L355.484 635.359C353.984 635.649 352.444 635.598 350.974 635.218L325.544 628.538C320.474 627.208 316.934 622.619 316.934 617.369V553.328C316.934 548.658 319.004 544.228 322.574 541.218C325.594 538.688 329.664 537.778 333.464 538.798V538.818Z" fill="#303A66"/>
<mask id="mask2_83_10034" style="mask-type:luminance" maskUnits="userSpaceOnUse" x="316" y="538" width="53" height="98">
<path d="M333.464 538.818L362.104 546.489C365.664 547.439 368.134 550.668 368.134 554.348V625.779C368.134 629.909 365.214 633.459 361.164 634.249L355.484 635.359C353.984 635.649 352.444 635.598 350.974 635.218L325.544 628.538C320.474 627.208 316.934 622.619 316.934 617.369V553.328C316.934 548.658 319.004 544.228 322.574 541.218C325.594 538.688 329.664 537.778 333.464 538.798V538.818Z" fill="white"/>
</mask>
<g mask="url(#mask2_83_10034)">
<path opacity="0.1" d="M365.694 639.248H356.254V557.018L365.694 552.488V639.248Z" fill="black"/>
</g>
<path d="M1324.92 103.738L1277.21 90.9584C1270.36 89.1184 1259.24 89.1184 1252.39 90.9584L1204.68 103.738C1197.83 105.578 1197.83 108.548 1204.68 110.388L1252.39 123.168C1259.24 125.008 1270.36 125.008 1277.21 123.168L1324.92 110.388C1331.77 108.548 1331.77 105.578 1324.92 103.738Z" fill="#B4BDC5"/>
<path d="M1330.07 102.548H1199.54V107.058H1330.07V102.548Z" fill="#B4BDC5"/>
<path d="M1324.92 99.2284L1277.21 86.4484C1270.36 84.6084 1259.24 84.6084 1252.39 86.4484L1204.68 99.2284C1197.83 101.068 1197.83 104.038 1204.68 105.878L1252.39 118.658C1259.24 120.498 1270.36 120.498 1277.21 118.658L1324.92 105.878C1331.77 104.038 1331.77 101.068 1324.92 99.2284Z" fill="#D0D2D3"/>
<path d="M1207.22 600.958C1195.61 644.308 1211.91 686.338 1243.64 694.838C1275.37 703.338 1310.51 675.088 1322.12 631.748C1333.73 588.398 1317.43 546.368 1285.7 537.868C1253.97 529.368 1218.83 557.618 1207.22 600.958Z" fill="#303A66"/>
<path d="M1305.46 627.277C1313.71 596.501 1302.13 566.659 1279.6 560.623C1257.07 554.587 1232.13 574.642 1223.88 605.417C1215.63 636.193 1227.21 666.035 1249.74 672.071C1272.27 678.108 1297.22 658.053 1305.46 627.277Z" fill="#E9E9EA"/>
<path d="M1239.63 609.648C1234.69 628.078 1241.62 645.948 1255.12 649.558C1268.61 653.178 1283.55 641.168 1288.48 622.728C1293.42 604.298 1286.49 586.428 1272.99 582.818C1259.5 579.198 1244.56 591.208 1239.63 609.648Z" fill="#43596D"/>
<path d="M1255.29 613.838C1253.39 620.918 1256.06 627.778 1261.24 629.168C1266.42 630.558 1272.16 625.948 1274.06 618.868C1275.96 611.788 1273.29 604.928 1268.11 603.538C1262.93 602.148 1257.19 606.758 1255.29 613.838Z" fill="#5D6E81"/>
<path d="M1268.9 578.338L1260.7 580.538C1257.55 581.388 1254.97 579.308 1254.97 575.928V574.599C1254.97 571.219 1257.55 567.758 1260.7 566.918L1268.9 564.719C1272.05 563.869 1274.63 565.948 1274.63 569.328V570.658C1274.63 574.038 1272.05 577.498 1268.9 578.338Z" fill="#00123E"/>
<path d="M1268.9 665.399L1260.7 667.599C1257.55 668.449 1254.97 666.369 1254.97 662.989V661.658C1254.97 658.278 1257.55 654.819 1260.7 653.979L1268.9 651.779C1272.05 650.929 1274.63 653.009 1274.63 656.389V657.719C1274.63 661.099 1272.05 664.559 1268.9 665.399Z" fill="#00123E"/>
<path d="M1235.01 617.938V630.338C1235.01 633.598 1232.52 636.928 1229.48 637.738C1226.44 638.548 1223.95 636.558 1223.95 633.298V620.899C1223.95 617.639 1226.44 614.308 1229.48 613.498C1232.52 612.688 1235.01 614.678 1235.01 617.938Z" fill="#00123E"/>
<path d="M1305.64 599.018V611.418C1305.64 614.678 1303.15 618.008 1300.11 618.818C1297.07 619.628 1294.58 617.638 1294.58 614.378V601.978C1294.58 598.718 1297.07 595.388 1300.11 594.578C1303.15 593.768 1305.64 595.758 1305.64 599.018Z" fill="#00123E"/>
<path d="M1240.57 644.698L1246.91 650.818C1248.99 652.828 1248.99 657.018 1246.91 660.138L1246.66 660.518C1244.58 663.638 1241.18 664.548 1239.1 662.548L1232.76 656.428C1230.68 654.418 1230.68 650.228 1232.76 647.108L1233.01 646.728C1235.09 643.608 1238.49 642.698 1240.57 644.698Z" fill="#00123E"/>
<path d="M1290.51 569.768L1296.85 575.888C1298.93 577.898 1298.93 582.088 1296.85 585.208L1296.6 585.588C1294.52 588.708 1291.12 589.618 1289.04 587.618L1282.7 581.498C1280.62 579.488 1280.62 575.298 1282.7 572.178L1282.95 571.798C1285.03 568.678 1288.43 567.768 1290.51 569.768Z" fill="#00123E"/>
<path d="M1282.69 641.238L1289.03 631.718C1291.11 628.598 1294.51 627.688 1296.59 629.688L1296.84 629.928C1298.92 631.938 1298.92 636.128 1296.84 639.248L1290.5 648.768C1288.42 651.888 1285.02 652.798 1282.94 650.798L1282.69 650.558C1280.61 648.548 1280.61 644.358 1282.69 641.238Z" fill="#00123E"/>
<path d="M1232.75 593.058L1239.09 583.538C1241.17 580.418 1244.57 579.508 1246.65 581.508L1246.9 581.748C1248.98 583.758 1248.98 587.948 1246.9 591.068L1240.56 600.588C1238.48 603.708 1235.08 604.618 1233 602.618L1232.75 602.378C1230.67 600.368 1230.67 596.178 1232.75 593.058Z" fill="#00123E"/>
<path d="M1764.19 220.578C1834.47 224.048 1777.94 425.998 1639.23 527.418C1502.9 627.098 1287.47 728.088 1212.39 752.618C1168.45 766.978 1066.49 801.928 1027.22 792.208C957.954 775.058 976.654 710.528 963.034 688.108" stroke="#37FE12" stroke-width="8.93" stroke-miterlimit="10" stroke-linecap="round"/>
<path d="M934.004 659.838L949.924 655.408C952.124 654.798 954.004 656.528 953.864 659.048L953.544 679.188C953.434 681.158 952.104 682.958 950.384 683.478L934.814 688.128C932.634 688.778 930.744 687.129 930.804 684.649L930.784 664.288C930.834 662.248 932.224 660.338 934.014 659.848L934.004 659.838Z" fill="#001230"/>
<path d="M934.554 664.908L948.054 657.658L957.904 664.358L969.434 688.148L959.834 693.398L945.784 676.078L940.724 677.498L934.554 664.908Z" fill="#43596D"/>
<path d="M932.544 657.908L939.804 649.858C940.814 648.748 941.464 650.198 941.174 652.918L941.124 674.428C940.894 676.548 940.164 678.748 939.374 679.658L932.244 687.858C931.244 689.008 930.584 687.648 930.834 684.988L930.754 663.318C930.964 661.128 931.734 658.818 932.544 657.908Z" fill="#242B52"/>
<path d="M81.2734 849.238L147.953 867.108V839.038L81.2734 821.168V849.238Z" fill="#001230"/>
<path d="M77.083 850.168L143.763 868.038V839.968L77.083 822.108V850.168Z" fill="white"/>
<g opacity="0.1">
<path d="M2048.09 845.73C2015.33 836.95 1916.97 859.25 1884.21 868.03L1238.34 1041.09C1205.58 1049.87 1205.58 1064.23 1238.34 1073.01L1431.8 1124.85C1464.56 1133.63 1518.52 1135.06 1551.71 1128.02C1857.83 1059.92 2198.05 960.18 2231.89 931.63C2266.23 902.66 2242.45 897.05 2209.68 888.27L2048.09 845.73Z" fill="#001230"/>
</g>
<g style="mix-blend-mode:multiply" opacity="0.5">
<g style="mix-blend-mode:multiply" opacity="0.8">
<path d="M2021.4 863.78C1988.64 855 1935.02 855 1902.25 863.78L1245.39 1040.14C1212.63 1048.92 1212.63 1063.29 1245.39 1072.06L1390.14 1110.8C1422.9 1119.58 1457.82 1121.61 1476.86 1120.32C1495.9 1119.03 1519.51 1115.03 1563.22 1099.87C1630.78 1076.44 2002.98 980.49 2050.16 968.26C2126.65 948.43 2161.22 932.89 2171.72 925.78C2182.23 918.67 2186.2 907.93 2153.44 899.16L2021.39 863.78H2021.4Z" fill="#001230"/>
</g>
</g>
<path d="M2128.38 858.84L1596.17 1001.44L1588.51 1045.93L1472.57 1016.75L1481.59 939.01L2142.16 760.61L2137.13 850.25L2128.38 858.84Z" fill="#001230"/>
<path d="M1891.18 857.93C1880.51 897.74 1895.49 936.34 1924.63 944.15C1953.77 951.96 1986.04 926.02 1996.71 886.21C2007.38 846.4 1992.4 807.8 1963.26 799.99C1934.12 792.18 1901.85 818.13 1891.18 857.93Z" fill="#001230"/>
<path d="M1924.6 944.169L1967.62 955.695L2006.25 811.53L1963.23 800.005L1924.6 944.169Z" fill="#001230"/>
<path d="M1933.06 869.15C1922.39 908.96 1937.37 947.56 1966.51 955.37C1995.65 963.18 2027.92 937.23 2038.59 897.43C2049.26 857.62 2034.28 819.02 2005.14 811.21C1976 803.4 1943.73 829.35 1933.06 869.16V869.15Z" fill="#303A66"/>
<path d="M2023.27 893.303C2030.84 865.04 2020.21 837.634 1999.52 832.091C1978.83 826.548 1955.92 844.966 1948.35 873.229C1940.78 901.492 1951.41 928.897 1972.1 934.44C1992.79 939.984 2015.7 921.566 2023.27 893.303Z" fill="#E9E9EA"/>
<path d="M1958.04 875.84C1953.1 894.26 1960.03 912.13 1973.52 915.74C1987 919.35 2001.94 907.35 2006.87 888.92C2011.81 870.5 2004.88 852.64 1991.39 849.02C1977.91 845.41 1962.97 857.41 1958.04 875.84Z" fill="#D0D2D3"/>
<path d="M1977.2 880.98C1975.46 887.48 1977.9 893.79 1982.66 895.06C1987.42 896.34 1992.69 892.1 1994.43 885.6C1996.17 879.1 1993.73 872.8 1988.97 871.52C1984.21 870.24 1978.94 874.48 1977.2 880.98Z" fill="#E9E9EA"/>
<path d="M1989.7 848.37L1982.17 850.39C1979.27 851.17 1976.9 849.26 1976.9 846.16V844.94C1976.9 841.84 1979.27 838.66 1982.17 837.88L1989.7 835.86C1992.6 835.08 1994.97 836.99 1994.97 840.09V841.31C1994.97 844.41 1992.6 847.59 1989.7 848.37Z" fill="#00123E"/>
<path d="M1989.7 928.32L1982.17 930.34C1979.27 931.12 1976.9 929.21 1976.9 926.11V924.89C1976.9 921.79 1979.27 918.61 1982.17 917.83L1989.7 915.81C1992.6 915.03 1994.97 916.94 1994.97 920.04V921.26C1994.97 924.36 1992.6 927.54 1989.7 928.32Z" fill="#00123E"/>
<path d="M1958.58 884.74V896.13C1958.58 899.12 1956.3 902.18 1953.51 902.93C1950.72 903.68 1948.44 901.84 1948.44 898.85V887.46C1948.44 884.47 1950.72 881.41 1953.51 880.66C1956.3 879.91 1958.58 881.75 1958.58 884.74Z" fill="#00123E"/>
<path d="M2023.45 867.36V878.75C2023.45 881.74 2021.17 884.8 2018.38 885.55C2015.59 886.3 2013.31 884.46 2013.31 881.47V870.08C2013.31 867.09 2015.59 864.03 2018.38 863.28C2021.17 862.53 2023.45 864.37 2023.45 867.36Z" fill="#00123E"/>
<path d="M1963.68 909.32L1969.51 914.94C1971.42 916.78 1971.42 920.64 1969.51 923.5L1969.28 923.85C1967.37 926.72 1964.24 927.55 1962.33 925.71L1956.5 920.09C1954.59 918.25 1954.59 914.39 1956.5 911.53L1956.73 911.18C1958.64 908.31 1961.77 907.48 1963.68 909.32Z" fill="#00123E"/>
<path d="M2009.55 840.5L2015.38 846.12C2017.29 847.96 2017.29 851.82 2015.38 854.68L2015.15 855.03C2013.24 857.9 2010.11 858.73 2008.2 856.89L2002.37 851.27C2000.46 849.43 2000.46 845.57 2002.37 842.71L2002.6 842.36C2004.51 839.49 2007.64 838.66 2009.55 840.5Z" fill="#00123E"/>
<path d="M2002.37 906.13L2008.2 897.39C2010.11 894.52 2013.24 893.69 2015.15 895.53L2015.38 895.75C2017.29 897.59 2017.29 901.44 2015.38 904.31L2009.55 913.05C2007.64 915.92 2004.51 916.75 2002.6 914.91L2002.37 914.69C2000.46 912.85 2000.46 909 2002.37 906.13Z" fill="#00123E"/>
<path d="M1956.5 861.89L1962.33 853.15C1964.24 850.28 1967.37 849.45 1969.28 851.29L1969.51 851.51C1971.42 853.35 1971.42 857.2 1969.51 860.07L1963.68 868.81C1961.77 871.68 1958.64 872.51 1956.73 870.67L1956.5 870.45C1954.59 868.61 1954.59 864.76 1956.5 861.89Z" fill="#00123E"/>
<path d="M1883.43 861.33L1634.75 927.96V1025.23L1873.93 961.14C1879.53 959.64 1883.43 954.56 1883.43 948.76V861.32V861.33Z" fill="#303A66"/>
<path d="M1578.04 912.77L1826.72 846.13L1883.43 861.33L1634.74 927.96L1578.04 912.77Z" fill="#001230"/>
<path d="M1578.04 912.77V1010.04L1634.74 1025.23V927.96L1578.04 912.77Z" fill="#00123E"/>
<path d="M2063.01 781.05L2120.36 765.68L2177.07 780.88L2119.72 796.24L2063.01 781.05Z" fill="#001230"/>
<path d="M2063.01 781.05V878.32L2119.72 893.52V796.24L2063.01 781.05Z" fill="#00123E"/>
<path d="M2177.07 780.88L2119.72 796.25V893.52L2166.3 881.04C2172.65 879.34 2177.07 873.58 2177.07 867V780.88Z" fill="#303A66"/>
<path d="M1945.53 872.49C1934.86 912.3 1949.84 950.9 1978.98 958.71C2008.12 966.52 2040.39 940.58 2051.06 900.77C2061.73 860.96 2046.75 822.36 2017.61 814.55C1988.47 806.74 1956.2 832.69 1945.53 872.49Z" fill="#001230"/>
<path d="M1978.95 958.731L2021.96 970.256L2060.59 826.092L2017.57 814.567L1978.95 958.731Z" fill="#001230"/>
<path d="M1987.4 883.71C1976.73 923.52 1991.71 962.12 2020.85 969.93C2049.99 977.74 2082.26 951.79 2092.93 911.99C2103.6 872.18 2088.62 833.58 2059.48 825.77C2030.34 817.96 1998.07 843.91 1987.4 883.72V883.71Z" fill="#303A66"/>
<path d="M2002.71 887.81C1995.14 916.07 2005.77 943.48 2026.46 949.02C2047.15 954.56 2070.06 936.15 2077.63 907.88C2085.2 879.62 2074.57 852.21 2053.88 846.67C2033.19 841.13 2010.28 859.54 2002.71 887.81Z" fill="#E9E9EA"/>
<path d="M2012.39 890.41C2007.45 908.83 2014.38 926.7 2027.87 930.31C2041.35 933.92 2056.29 921.92 2061.22 903.49C2066.16 885.07 2059.23 867.21 2045.74 863.59C2032.26 859.98 2017.32 871.98 2012.39 890.41Z" fill="#43596D"/>
<path d="M2031.55 895.54C2029.81 902.04 2032.25 908.35 2037.01 909.62C2041.77 910.9 2047.04 906.66 2048.78 900.16C2050.52 893.66 2048.08 887.36 2043.32 886.08C2038.56 884.8 2033.29 889.04 2031.55 895.54Z" fill="#00123E"/>
<path d="M2044.05 862.94L2036.52 864.96C2033.62 865.74 2031.25 863.83 2031.25 860.73V859.51C2031.25 856.41 2033.62 853.23 2036.52 852.45L2044.05 850.43C2046.95 849.65 2049.32 851.56 2049.32 854.66V855.88C2049.32 858.98 2046.95 862.16 2044.05 862.94Z" fill="#00123E"/>
<path d="M2044.05 942.89L2036.52 944.91C2033.62 945.69 2031.25 943.78 2031.25 940.68V939.46C2031.25 936.36 2033.62 933.18 2036.52 932.4L2044.05 930.38C2046.95 929.6 2049.32 931.51 2049.32 934.61V935.83C2049.32 938.93 2046.95 942.11 2044.05 942.89Z" fill="#00123E"/>
<path d="M2012.92 899.3V910.69C2012.92 913.68 2010.64 916.74 2007.85 917.49C2005.06 918.24 2002.78 916.4 2002.78 913.41V902.02C2002.78 899.03 2005.06 895.97 2007.85 895.22C2010.64 894.47 2012.92 896.31 2012.92 899.3Z" fill="#00123E"/>
<path d="M2077.79 881.92V893.31C2077.79 896.3 2075.51 899.36 2072.72 900.11C2069.93 900.86 2067.65 899.02 2067.65 896.03V884.64C2067.65 881.65 2069.93 878.59 2072.72 877.84C2075.51 877.09 2077.79 878.93 2077.79 881.92Z" fill="#00123E"/>
<path d="M2018.02 923.88L2023.85 929.5C2025.76 931.34 2025.76 935.19 2023.85 938.06L2023.62 938.41C2021.71 941.28 2018.58 942.11 2016.67 940.27L2010.84 934.65C2008.93 932.81 2008.93 928.95 2010.84 926.09L2011.07 925.74C2012.98 922.87 2016.11 922.04 2018.02 923.88Z" fill="#00123E"/>
<path d="M2063.89 855.06L2069.72 860.68C2071.63 862.52 2071.63 866.38 2069.72 869.24L2069.49 869.59C2067.58 872.46 2064.45 873.29 2062.54 871.45L2056.71 865.83C2054.8 863.99 2054.8 860.13 2056.71 857.27L2056.94 856.92C2058.85 854.05 2061.98 853.22 2063.89 855.06Z" fill="#00123E"/>
<path d="M2056.71 920.7L2062.54 911.96C2064.45 909.09 2067.58 908.26 2069.49 910.1L2069.72 910.32C2071.63 912.16 2071.63 916.01 2069.72 918.88L2063.89 927.62C2061.98 930.49 2058.85 931.32 2056.94 929.48L2056.71 929.26C2054.8 927.42 2054.8 923.57 2056.71 920.7Z" fill="#00123E"/>
<path d="M2010.85 876.45L2016.68 867.71C2018.59 864.84 2021.72 864.01 2023.63 865.85L2023.86 866.07C2025.77 867.91 2025.77 871.76 2023.86 874.63L2018.03 883.37C2016.12 886.24 2012.99 887.07 2011.08 885.23L2010.85 885.01C2008.94 883.17 2008.94 879.32 2010.85 876.45Z" fill="#00123E"/>
<path d="M1429.6 1010.85C1418.93 1050.66 1433.91 1089.26 1463.05 1097.07C1492.19 1104.88 1524.46 1078.93 1535.13 1039.12C1545.8 999.31 1530.82 960.71 1501.68 952.9C1472.54 945.09 1440.27 971.04 1429.6 1010.84V1010.85Z" fill="#001230"/>
<path d="M1463.08 1097.06L1506.09 1108.58L1544.72 964.417L1501.71 952.892L1463.08 1097.06Z" fill="#001230"/>
<path d="M2232.49 360.21L2233.04 360.06L1975.33 291L1373.31 452.32V846.61L1631.02 915.67L2233.14 754.35V360.06L2232.49 360.21Z" fill="#E9E9EA"/>
<path opacity="0.1" d="M2233.14 754.35L1631.02 915.67V521.38L2233.14 360.06V754.35Z" fill="black"/>
<path opacity="0.1" d="M1373.31 452.32V846.61L1631.02 915.67V521.38L1373.31 452.32Z" fill="black"/>
<path opacity="0.1" d="M1361.43 555.81V950.1L1619.15 1019.17V624.88L1361.43 555.81Z" fill="black"/>
<path d="M1205.88 592.22C1165.06 603.16 1113.93 620.77 1101.47 648.37C1087.81 678.63 1073.12 819.3 1074.19 951.53C1074.22 955.29 1070.06 959.03 1070.02 962.75C1069.54 1007.8 1077.36 1018.22 1094.02 1026.24C1127.07 1042.15 1260.93 1074.75 1316.83 1086.09C1343.31 1089.6 1367.89 1092.25 1387.75 1087.15C1447.8 1071.75 1452.85 1069.99 1452.85 1069.99C1451.57 1049.83 1451.51 1043.86 1455.84 1022.12C1465.82 972.03 1507.75 938.47 1542.38 944.16C1575.37 949.57 1594.53 978.04 1588.51 1045.94L1603.54 1041.89V627.43L1338.97 556.53C1280.22 572.29 1232.91 584.98 1205.87 592.23L1205.88 592.22Z" fill="#E9E9EA"/>
<path d="M1471.47 1022.07C1460.8 1061.88 1475.78 1100.48 1504.92 1108.29C1534.06 1116.1 1566.33 1090.15 1577 1050.35C1587.67 1010.54 1572.69 971.94 1543.55 964.13C1514.41 956.32 1482.14 982.27 1471.47 1022.08V1022.07Z" fill="#303A66"/>
<path d="M1561.69 1046.23C1569.27 1017.96 1558.63 990.557 1537.95 985.014C1517.26 979.471 1494.35 997.889 1486.78 1026.15C1479.2 1054.41 1489.83 1081.82 1510.52 1087.36C1531.21 1092.91 1554.12 1074.49 1561.69 1046.23Z" fill="#E9E9EA"/>
<path d="M1496.46 1028.77C1491.52 1047.19 1498.45 1065.06 1511.94 1068.67C1525.42 1072.28 1540.36 1060.28 1545.29 1041.85C1550.23 1023.43 1543.3 1005.57 1529.81 1001.95C1516.33 998.34 1501.39 1010.34 1496.46 1028.77Z" fill="#43596D"/>
<path d="M1515.62 1033.9C1513.88 1040.4 1516.32 1046.71 1521.08 1047.98C1525.84 1049.26 1531.11 1045.02 1532.85 1038.52C1534.59 1032.02 1532.15 1025.72 1527.39 1024.44C1522.63 1023.16 1517.36 1027.4 1515.62 1033.9Z" fill="#00123E"/>
<path d="M1528.12 1001.3L1520.59 1003.32C1517.69 1004.1 1515.32 1002.19 1515.32 999.09V997.87C1515.32 994.77 1517.69 991.59 1520.59 990.81L1528.12 988.79C1531.02 988.01 1533.39 989.92 1533.39 993.02V994.24C1533.39 997.34 1531.02 1000.52 1528.12 1001.3Z" fill="#00123E"/>
<path d="M1528.12 1081.25L1520.59 1083.27C1517.69 1084.05 1515.32 1082.14 1515.32 1079.04V1077.82C1515.32 1074.72 1517.69 1071.54 1520.59 1070.76L1528.12 1068.74C1531.02 1067.96 1533.39 1069.87 1533.39 1072.97V1074.19C1533.39 1077.29 1531.02 1080.47 1528.12 1081.25Z" fill="#00123E"/>
<path d="M1497 1037.67V1049.06C1497 1052.05 1494.72 1055.11 1491.93 1055.86C1489.14 1056.61 1486.86 1054.77 1486.86 1051.78V1040.39C1486.86 1037.4 1489.14 1034.34 1491.93 1033.59C1494.72 1032.84 1497 1034.68 1497 1037.67Z" fill="#00123E"/>
<path d="M1561.86 1020.28V1031.67C1561.86 1034.66 1559.58 1037.72 1556.79 1038.47C1554 1039.22 1551.72 1037.38 1551.72 1034.39V1023C1551.72 1020.01 1554 1016.95 1556.79 1016.2C1559.58 1015.45 1561.86 1017.29 1561.86 1020.28Z" fill="#00123E"/>
<path d="M1502.1 1062.24L1507.93 1067.86C1509.84 1069.7 1509.84 1073.56 1507.93 1076.42L1507.7 1076.77C1505.79 1079.64 1502.66 1080.47 1500.75 1078.63L1494.92 1073.01C1493.01 1071.17 1493.01 1067.31 1494.92 1064.45L1495.15 1064.1C1497.06 1061.23 1500.19 1060.4 1502.1 1062.24Z" fill="#00123E"/>
<path d="M1547.96 993.42L1553.79 999.04C1555.7 1000.88 1555.7 1004.74 1553.79 1007.6L1553.56 1007.95C1551.65 1010.82 1548.52 1011.65 1546.61 1009.81L1540.78 1004.19C1538.87 1002.35 1538.87 998.49 1540.78 995.63L1541.01 995.28C1542.92 992.41 1546.05 991.58 1547.96 993.42Z" fill="#00123E"/>
<path d="M1540.78 1059.06L1546.61 1050.32C1548.52 1047.45 1551.65 1046.62 1553.56 1048.46L1553.79 1048.68C1555.7 1050.52 1555.7 1054.38 1553.79 1057.24L1547.96 1065.98C1546.05 1068.85 1542.92 1069.68 1541.01 1067.84L1540.78 1067.62C1538.87 1065.78 1538.87 1061.93 1540.78 1059.06Z" fill="#00123E"/>
<path d="M1494.92 1014.82L1500.75 1006.08C1502.66 1003.21 1505.79 1002.38 1507.7 1004.22L1507.93 1004.44C1509.84 1006.28 1509.84 1010.13 1507.93 1013L1502.1 1021.74C1500.19 1024.61 1497.06 1025.44 1495.15 1023.6L1494.92 1023.38C1493.01 1021.54 1493.01 1017.68 1494.92 1014.82Z" fill="#00123E"/>
<path opacity="0.1" d="M1264.67 1060.72C1267.95 1059.93 1263.63 1051.9 1262.24 1049.11C1250.42 1025.45 1181.86 1011.04 1159.25 1007.35C1139.96 1004.2 1131.54 1007.22 1129.58 1012.23C1128.82 1014.16 1126.56 1022.1 1128.95 1024.2C1134.51 1029.09 1168.8 1037.89 1186.29 1042.99C1205.22 1048.51 1260.86 1061.64 1264.67 1060.72Z" fill="black"/>
<path d="M1098.9 655.31C1178.28 681.76 1269.86 706.42 1368.32 728.63L1347.01 915.1C1238.81 889.83 1148.92 865.2 1076.58 842.18C1078.33 780.88 1087.87 687.65 1098.9 655.31Z" fill="#00123E"/>
<path d="M1120.66 807.27C1120.66 807.27 1250.83 846.31 1343.2 867.16L1339.31 907.08C1237.79 883.38 1085.58 838.66 1085.58 838.66C1086.1 826.58 1105.78 807.27 1120.66 807.27Z" fill="#303A66"/>
<path d="M1344.32 1024.65C1236.12 999.38 1146.23 974.75 1073.89 951.73" stroke="#231F32" stroke-miterlimit="10"/>
<path d="M1347.61 772.03L1350.88 739.46L1241.18 709.6L1237.89 742.17L1347.61 772.03Z" fill="#303A66"/>
<path d="M1221.65 736.7L1224.92 704.12L1115.21 674.27L1111.92 706.83L1221.65 736.7Z" fill="#303A66"/>
<path d="M1603.55 627.42C1603.55 627.42 1506.67 653.39 1476.49 661.47C1435.67 672.41 1384.54 690.02 1372.08 717.62C1358.42 747.88 1343.73 888.55 1344.8 1020.78C1344.83 1024.54 1340.67 1028.28 1340.63 1032C1340.25 1067.66 1345.07 1081.62 1355.36 1089.87" stroke="#231F32" stroke-miterlimit="10"/>
<path d="M1603.55 1041.88V923.28L1523.85 944.64C1530.11 943.37 1536.36 943.17 1542.39 944.16C1575.38 949.57 1594.54 978.04 1588.52 1045.94L1603.55 1041.89V1041.88Z" fill="#303A66"/>
<path d="M1203.61 908.97C1205.26 912.94 1203.98 917.25 1200.74 918.6C1197.5 919.94 1193.53 917.81 1191.88 913.84C1190.22 909.87 1191.51 905.56 1194.75 904.21C1197.99 902.87 1201.96 905 1203.61 908.97Z" fill="#303A66"/>
<path d="M1086.51 905.49C1082.68 904.46 1079.54 906.87 1079.54 910.84V935.06C1079.54 939.03 1082.68 943.11 1086.51 944.14L1326.79 1008.52C1330.62 1009.55 1333.76 1007.14 1333.76 1003.17V978.95C1333.76 974.98 1330.62 970.9 1326.79 969.87L1086.51 905.49Z" fill="#303A66"/>
<g opacity="0.1">
<path d="M1086.7 943.23C1082.77 942.7 1082.69 943.11 1086.52 944.14L1326.8 1008.52C1330.63 1009.55 1333.77 1007.14 1333.77 1003.17V983.66C1333.77 979.69 1330.55 976.01 1326.62 975.48L1086.7 943.23Z" fill="black"/>
</g>
<path d="M1391.84 621.2L1331.58 605.05C1322.92 602.73 1308.89 602.73 1300.23 605.05L1239.97 621.2C1231.31 623.52 1231.31 627.28 1239.97 629.6L1300.23 645.75C1308.89 648.07 1322.92 648.07 1331.58 645.75L1391.84 629.6C1400.5 627.28 1400.5 623.52 1391.84 621.2Z" fill="#B4BDC5"/>
<path d="M1398.33 619.02H1233.46V625.4H1398.33V619.02Z" fill="#B4BDC5"/>
<path d="M1391.84 615.5L1331.58 599.35C1322.92 597.03 1308.89 597.03 1300.23 599.35L1239.97 615.5C1231.31 617.82 1231.31 621.58 1239.97 623.9L1300.23 640.05C1308.89 642.37 1322.92 642.37 1331.58 640.05L1391.84 623.9C1400.5 621.58 1400.5 617.82 1391.84 615.5Z" fill="#D0D2D3"/>
<path opacity="0.1" d="M1310.16 583.56L1493.56 632.7L1572.07 611.66L1388.67 562.52L1310.16 583.56Z" fill="black"/>
<path d="M1310.13 577.99L1493.56 627.13V536.99L1310.13 487.85V577.99Z" fill="#D0D2D3"/>
<path d="M1310.16 487.85L1493.56 536.99L1572.07 515.95L1388.67 466.81L1310.16 487.85Z" fill="#E9E9EA"/>
<path d="M1572.07 515.95V606.09L1493.56 627.13V536.99L1572.07 515.95Z" fill="#B4BDC5"/>
<mask id="mask3_83_10034" style="mask-type:luminance" maskUnits="userSpaceOnUse" x="1070" y="556" width="534" height="534">
<path d="M1205.88 592.22C1165.06 603.16 1113.93 620.77 1101.47 648.37C1087.81 678.63 1073.12 819.3 1074.19 951.53C1074.22 955.29 1070.06 959.03 1070.02 962.75C1069.54 1007.8 1077.36 1018.22 1094.02 1026.24C1127.07 1042.15 1260.93 1074.75 1316.83 1086.09C1343.31 1089.6 1367.89 1092.25 1387.75 1087.15C1447.8 1071.75 1452.85 1069.99 1452.85 1069.99C1451.57 1049.83 1451.51 1043.86 1455.84 1022.12C1465.82 972.03 1507.75 938.47 1542.38 944.16C1575.37 949.57 1594.53 978.04 1588.51 1045.94L1603.54 1041.89V627.43L1338.97 556.53C1280.22 572.29 1232.91 584.98 1205.87 592.23L1205.88 592.22Z" fill="white"/>
</mask>
<g mask="url(#mask3_83_10034)">
<path opacity="0.1" d="M1615.64 629.76C1615.64 629.76 1518.76 655.73 1488.58 663.81C1447.76 674.75 1396.63 692.36 1384.17 719.96C1370.51 750.22 1355.82 890.89 1356.89 1023.12C1356.92 1026.88 1352.76 1030.62 1352.72 1034.34C1352.34 1070 1357.16 1083.96 1367.45 1092.21L1677.41 1063.59L1651.51 643.53L1615.63 629.77L1615.64 629.76Z" fill="black"/>
</g>
<path d="M1373.31 893.61V1020.91L1464.52 995.93" stroke="#231F32" stroke-miterlimit="10"/>
<path d="M1562.6 816.44L1462.94 843.14C1455.44 845.15 1448.83 849.63 1444.17 855.85L1433.79 869.73C1429.14 875.95 1422.53 880.43 1415.02 882.44L1373.3 893.62C1374.51 839.24 1380.51 786.48 1392.57 735.76C1395.05 725.33 1403.1 717.12 1413.45 714.35L1554.83 676.47C1564.35 673.92 1573.71 681.09 1573.71 690.95V801.97C1573.71 808.76 1569.15 814.7 1562.6 816.45V816.44Z" fill="#00123E"/>
<path d="M1373.31 1020.91V1051.95C1373.31 1065.8 1380.29 1074.89 1394.88 1072.47C1409.47 1070.06 1439.87 1059.93 1439.87 1059.93L1448.48 1000.33L1373.31 1020.91Z" fill="#5D6E81"/>
<mask id="mask4_83_10034" style="mask-type:luminance" maskUnits="userSpaceOnUse" x="1373" y="1000" width="76" height="73">
<path d="M1373.31 1020.91V1051.95C1373.31 1065.8 1380.29 1074.89 1394.88 1072.47C1409.47 1070.06 1439.87 1059.93 1439.87 1059.93L1448.48 1000.33L1373.31 1020.91Z" fill="white"/>
</mask>
<g mask="url(#mask4_83_10034)">
<path d="M1439.87 1059.93L1405.35 1051.38L1410.25 1010.79L1448.47 1000.32L1439.87 1059.93Z" fill="#43596D"/>
<path d="M1405.35 1051.38L1371.73 1060.56L1373.31 1020.91L1410.25 1010.79L1405.35 1051.38Z" fill="#001230"/>
<path d="M1439.99 1037.76L1378.63 1054.2V1046.55L1439.99 1030.11V1037.76Z" fill="#00123E"/>
<path d="M1439.98 1030.11L1378.63 1046.55L1352.37 1039.51L1413.72 1023.07L1439.98 1030.11Z" fill="#404079"/>
<path d="M1352.37 1039.51V1047.16L1378.63 1054.2V1046.55L1352.37 1039.51Z" fill="#001230"/>
</g>
<path d="M1514.27 888.48L1504.44 891.12V845.83L1514.27 843.19V888.48Z" fill="#B4BDC5"/>
<path d="M1532.12 818.89L1516.59 823.06V693.78L1532.12 689.62V818.89Z" fill="#303A66"/>
<path d="M1523.84 944.64V686.06" stroke="#231F32" stroke-miterlimit="10"/>
<path opacity="0.1" d="M1381.29 884.61C1382.4 834.66 1387.91 786.19 1398.99 739.6C1401.27 730.02 1408.66 722.48 1418.17 719.93L1548.04 685.13C1556.79 682.79 1565.38 689.38 1565.38 698.43L1381.29 884.6V884.61Z" fill="white"/>
<path d="M2166.11 811.02L2140.07 818V803.52L2166.11 796.54V811.02Z" fill="#EE9059"/>
<path opacity="0.1" d="M1108.58 665.49C1181.74 689.86 1266.14 712.59 1356.88 733.06C1356.88 733.06 1209.11 779.33 1088.01 837.71C1089.62 781.21 1098.41 695.3 1108.58 665.49Z" fill="white"/>
<path d="M1162.99 1018.93L1228.69 1036.54V1008.88L1162.99 991.28V1018.93Z" fill="#001230"/>
<path d="M1158.86 1019.85L1224.56 1037.45V1009.8L1158.86 992.2V1019.85Z" fill="white"/>
<g opacity="0.1">
<path d="M1088.03 912.07C1085.35 911.35 1083.15 913.04 1083.15 915.82V934.1C1083.15 936.88 1085.35 939.74 1088.03 940.46L1124.97 950.36C1127.65 951.08 1129.85 949.39 1129.85 946.61V928.33C1129.85 925.55 1127.65 922.69 1124.97 921.97L1088.03 912.07Z" fill="white"/>
</g>
<path d="M1095.38 915.77C1093.25 915.2 1091.5 916.54 1091.5 918.75V932C1091.5 934.21 1093.25 936.48 1095.38 937.05L1124.73 944.92C1126.86 945.49 1128.61 944.15 1128.61 941.94V928.69C1128.61 926.48 1126.87 924.21 1124.73 923.64L1095.38 915.77Z" fill="#00123E"/>
<path d="M1095.24 917.13C1093.97 916.79 1092.93 917.59 1092.93 918.9V926.79C1092.93 928.11 1093.97 929.46 1095.24 929.8L1112.72 934.48C1113.99 934.82 1115.03 934.02 1115.03 932.71V924.82C1115.03 923.5 1113.99 922.15 1112.72 921.81L1095.24 917.13Z" fill="#EE9059"/>
<path opacity="0.1" d="M2214.64 725.64L1649.63 877.64V870.89C1649.63 868.54 1651.19 866.49 1653.46 865.88L2208.11 716.66C2211.4 715.77 2214.64 718.25 2214.64 721.66V725.64Z" fill="black"/>
<path opacity="0.3" d="M2210.7 737.26L1656.05 886.48C1652.76 887.37 1649.52 884.89 1649.52 881.48V877.5L2214.53 725.5V732.25C2214.53 734.6 2212.97 736.65 2210.7 737.26Z" fill="white"/>
<path opacity="0.1" d="M2214.64 680.41L1649.63 832.41V825.66C1649.63 823.31 1651.19 821.26 1653.46 820.65L2208.11 671.43C2211.4 670.54 2214.64 673.02 2214.64 676.43V680.41Z" fill="black"/>
<path opacity="0.3" d="M2210.7 692.03L1656.05 841.25C1652.76 842.14 1649.52 839.66 1649.52 836.25V832.27L2214.53 680.27V687.02C2214.53 689.37 2212.97 691.42 2210.7 692.03Z" fill="white"/>
<path opacity="0.1" d="M2214.64 635.17L1649.63 787.17V780.42C1649.63 778.07 1651.19 776.02 1653.46 775.41L2208.11 626.19C2211.4 625.3 2214.64 627.78 2214.64 631.19V635.17Z" fill="black"/>
<path opacity="0.3" d="M2210.7 646.8L1656.05 796.02C1652.76 796.91 1649.52 794.43 1649.52 791.02V787.04L2214.53 635.04V641.79C2214.53 644.14 2212.97 646.19 2210.7 646.8Z" fill="white"/>
<path opacity="0.1" d="M2214.64 589.94L1649.63 741.94V735.19C1649.63 732.84 1651.19 730.79 1653.46 730.18L2208.11 580.96C2211.4 580.07 2214.64 582.55 2214.64 585.96V589.94Z" fill="black"/>
<path opacity="0.3" d="M2210.7 601.57L1656.05 750.79C1652.76 751.68 1649.52 749.2 1649.52 745.79V741.81L2214.53 589.81V596.56C2214.53 598.91 2212.97 600.96 2210.7 601.57Z" fill="white"/>
<path opacity="0.1" d="M2214.64 544.71L1649.63 696.71V689.96C1649.63 687.61 1651.19 685.56 1653.46 684.95L2208.11 535.73C2211.4 534.84 2214.64 537.32 2214.64 540.73V544.71Z" fill="black"/>
<path opacity="0.3" d="M2210.7 556.34L1656.05 705.56C1652.76 706.45 1649.52 703.97 1649.52 700.56V696.58L2214.53 544.58V551.33C2214.53 553.68 2212.97 555.73 2210.7 556.34Z" fill="white"/>
<path opacity="0.1" d="M2214.64 499.48L1649.63 651.48V644.73C1649.63 642.38 1651.19 640.33 1653.46 639.72L2208.11 490.5C2211.4 489.61 2214.64 492.09 2214.64 495.5V499.48Z" fill="black"/>
<path opacity="0.3" d="M2210.7 511.11L1656.05 660.33C1652.76 661.22 1649.52 658.74 1649.52 655.33V651.35L2214.53 499.35V506.1C2214.53 508.45 2212.97 510.5 2210.7 511.11Z" fill="white"/>
<path opacity="0.1" d="M2214.64 454.25L1649.63 606.25V599.5C1649.63 597.15 1651.19 595.1 1653.46 594.49L2208.11 445.27C2211.4 444.38 2214.64 446.86 2214.64 450.27V454.25Z" fill="black"/>
<path opacity="0.3" d="M2210.7 465.88L1656.05 615.1C1652.76 615.99 1649.52 613.51 1649.52 610.1V606.12L2214.53 454.12V460.87C2214.53 463.22 2212.97 465.27 2210.7 465.88Z" fill="white"/>
<path opacity="0.1" d="M2214.64 409.02L1649.63 561.02V554.27C1649.63 551.92 1651.19 549.87 1653.46 549.26L2208.11 400.04C2211.4 399.15 2214.64 401.63 2214.64 405.04V409.02Z" fill="black"/>
<path opacity="0.3" d="M2210.7 420.65L1656.05 569.87C1652.76 570.76 1649.52 568.28 1649.52 564.87V560.89L2214.53 408.89V415.64C2214.53 417.99 2212.97 420.04 2210.7 420.65Z" fill="white"/>
<g opacity="0.1">
<path d="M1288.82 965.13C1286.14 964.41 1283.94 966.1 1283.94 968.88V987.16C1283.94 989.94 1286.14 992.8 1288.82 993.52L1325.76 1003.42C1328.44 1004.14 1330.64 1002.45 1330.64 999.67V981.39C1330.64 978.61 1328.44 975.75 1325.76 975.03L1288.82 965.13Z" fill="white"/>
</g>
<path d="M1296.17 968.83C1294.04 968.26 1292.29 969.6 1292.29 971.81V985.06C1292.29 987.27 1294.04 989.54 1296.17 990.11L1325.52 997.97C1327.65 998.54 1329.4 997.2 1329.4 994.99V981.74C1329.4 979.53 1327.65 977.26 1325.52 976.69L1296.17 968.83Z" fill="#00123E"/>
<path d="M1307.77 973.56C1306.5 973.22 1305.46 974.02 1305.46 975.33V983.22C1305.46 984.54 1306.5 985.89 1307.77 986.23L1325.25 990.91C1326.52 991.25 1327.56 990.45 1327.56 989.14V981.25C1327.56 979.93 1326.52 978.58 1325.25 978.24L1307.77 973.56Z" fill="#EE9059"/>
<path d="M2463.45 448.45C2514 460.54 2448.93 685.89 2390.34 767.72C2292.03 905.04 2007.03 1006.8 1931.94 1031.33C1888 1045.69 1786.04 1080.64 1746.77 1070.92C1677.5 1053.77 1696.2 989.24 1682.58 966.82" stroke="#37FE12" stroke-width="8.93" stroke-miterlimit="10" stroke-linecap="round"/>
<path d="M1653.55 938.55L1669.47 934.12C1671.67 933.51 1673.55 935.24 1673.41 937.76L1673.09 957.9C1672.98 959.87 1671.65 961.67 1669.93 962.19L1654.36 966.84C1652.18 967.49 1650.29 965.84 1650.35 963.36L1650.33 943C1650.38 940.96 1651.77 939.05 1653.56 938.56L1653.55 938.55Z" fill="#001230"/>
<path d="M1654.11 943.62L1667.61 936.36L1677.45 943.06L1688.98 966.86L1679.39 972.11L1665.34 954.78L1660.27 956.2L1654.11 943.62Z" fill="#43596D"/>
<path d="M1652.09 936.62L1659.35 928.57C1660.36 927.46 1661.01 928.91 1660.72 931.63L1660.67 953.14C1660.44 955.26 1659.71 957.46 1658.92 958.37L1651.79 966.57C1650.79 967.72 1650.13 966.36 1650.38 963.7L1650.3 942.03C1650.51 939.84 1651.28 937.53 1652.09 936.62Z" fill="#242B52"/>
</svg>
