<svg width="3531" height="1551" viewBox="0 0 3531 1551" fill="none" xmlns="http://www.w3.org/2000/svg">

<path d="M1334.83 943.54C1317.24 943.54 1301.04 940.34 1286.22 933.93C1271.41 927.51 1258.6 918.51 1247.8 906.91C1236.99 895.31 1228.66 881.87 1222.8 866.61C1216.93 851.04 1214 834.25 1214 816.23V806.62C1214 788.91 1216.78 772.27 1222.33 756.7C1228.2 741.13 1236.22 727.55 1246.41 715.94C1256.9 704.34 1269.4 695.34 1283.91 688.93C1298.72 682.21 1315.08 678.85 1332.98 678.85C1352.73 678.85 1370.02 683.12 1384.83 691.67C1399.95 699.92 1411.99 712.43 1420.94 729.22C1429.89 746.02 1434.83 767.08 1435.76 792.42L1416.77 770.44V601H1481.13V935.3H1430.2V829.51H1441.31C1440.39 854.85 1435.14 876.07 1425.57 893.17C1416 909.96 1403.35 922.63 1387.61 931.18C1372.18 939.42 1354.58 943.54 1334.83 943.54ZM1349.18 889.96C1361.84 889.96 1373.41 887.21 1383.9 881.72C1394.4 875.92 1402.73 867.68 1408.9 856.99C1415.39 846 1418.63 833.18 1418.63 818.52V800.21C1418.63 785.55 1415.39 773.34 1408.9 763.57C1402.42 753.5 1393.94 745.86 1383.44 740.67C1372.95 735.18 1361.53 732.43 1349.18 732.43C1335.29 732.43 1322.95 735.79 1312.15 742.5C1301.65 748.92 1293.32 758.07 1287.15 769.98C1281.28 781.89 1278.35 795.78 1278.35 811.65C1278.35 827.53 1281.44 841.42 1287.61 853.33C1293.78 864.93 1302.12 873.93 1312.61 880.35C1323.41 886.76 1335.6 889.96 1349.18 889.96Z" fill="white" data-index="1" style="opacity: 1;"></path>
<path d="M1666.87 944C1645.27 944 1626.29 940.34 1609.93 933.01C1593.88 925.68 1580.45 915.91 1569.65 903.7C1559.16 891.18 1551.13 877.29 1545.58 862.03C1540.33 846.76 1537.71 831.19 1537.71 815.32V806.62C1537.71 790.13 1540.33 774.26 1545.58 758.99C1551.13 743.42 1559.16 729.68 1569.65 717.78C1580.45 705.56 1593.72 695.95 1609.46 688.93C1625.21 681.6 1643.41 677.93 1664.09 677.93C1691.25 677.93 1713.94 683.89 1732.15 695.79C1750.67 707.4 1764.55 722.81 1773.81 742.05C1783.07 760.98 1787.7 781.43 1787.7 803.41V826.31H1565.02V787.38H1747.43L1727.52 806.62C1727.52 790.74 1725.2 777.16 1720.57 765.86C1715.94 754.56 1708.85 745.86 1699.28 739.76C1690.02 733.65 1678.29 730.6 1664.09 730.6C1649.9 730.6 1637.86 733.8 1627.98 740.21C1618.11 746.63 1610.55 755.94 1605.3 768.15C1600.36 780.06 1597.89 794.4 1597.89 811.2C1597.89 826.77 1600.36 840.66 1605.3 852.87C1610.24 864.78 1617.8 874.24 1627.98 881.26C1638.17 887.98 1651.13 891.34 1666.87 891.34C1682.61 891.34 1695.42 888.28 1705.3 882.18C1715.17 875.77 1721.5 867.98 1724.28 858.82H1783.54C1779.83 875.92 1772.73 890.88 1762.24 903.7C1751.75 916.52 1738.32 926.45 1721.96 933.47C1705.91 940.49 1687.55 944 1666.87 944Z" fill="white" data-index="2" style="opacity: 1;"></path>
<path d="M1953.96 944C1932.35 944 1913.37 940.34 1897.01 933.01C1880.97 925.68 1867.54 915.91 1856.74 903.7C1846.24 891.18 1838.22 877.29 1832.66 862.03C1827.42 846.76 1824.79 831.19 1824.79 815.32V806.62C1824.79 790.13 1827.42 774.26 1832.66 758.99C1838.22 743.42 1846.24 729.68 1856.74 717.78C1867.54 705.56 1880.81 695.95 1896.55 688.93C1912.29 681.6 1930.5 677.93 1951.18 677.93C1978.34 677.93 2001.02 683.89 2019.23 695.79C2037.75 707.4 2051.64 722.81 2060.9 742.05C2070.16 760.98 2074.79 781.43 2074.79 803.41V826.31H1852.11V787.38H2034.51L2014.6 806.62C2014.6 790.74 2012.29 777.16 2007.66 765.86C2003.03 754.56 1995.93 745.86 1986.36 739.76C1977.11 733.65 1965.38 730.6 1951.18 730.6C1936.98 730.6 1924.95 733.8 1915.07 740.21C1905.19 746.63 1897.63 755.94 1892.38 768.15C1887.45 780.06 1884.98 794.4 1884.98 811.2C1884.98 826.77 1887.45 840.66 1892.38 852.87C1897.32 864.78 1904.88 874.24 1915.07 881.26C1925.25 887.98 1938.22 891.34 1953.96 891.34C1969.7 891.34 1982.51 888.28 1992.38 882.18C2002.26 875.77 2008.59 867.98 2011.36 858.82H2070.62C2066.92 875.92 2059.82 890.88 2049.33 903.7C2038.83 916.52 2025.41 926.45 2009.05 933.47C1993 940.49 1974.64 944 1953.96 944Z" fill="white" data-index="3" style="opacity: 1;"></path>
<path d="M2304.47 935.3L2220.21 818.98H2182.71L2289.65 686.64H2356.78L2258.17 808.91L2259.56 776.85L2377.15 935.3H2304.47ZM2128.55 935.3V601H2192.9V935.3H2128.55Z" fill="#79BB51" data-index="4" style="opacity: 1;"></path>
<path d="M2562.97 935.3V861.57H2552.32V779.6C2552.32 765.25 2548.77 754.56 2541.68 747.54C2534.58 740.52 2523.62 737.01 2508.81 737.01C2501.09 737.01 2491.83 737.16 2481.03 737.47C2470.23 737.77 2459.27 738.23 2448.16 738.84C2437.36 739.15 2427.63 739.6 2418.99 740.21V686.18C2426.09 685.57 2434.12 684.96 2443.07 684.35C2452.02 683.74 2461.12 683.43 2470.38 683.43C2479.95 683.12 2488.9 682.97 2497.23 682.97C2523.16 682.97 2544.61 686.33 2561.58 693.05C2578.87 699.76 2591.83 710.3 2600.47 724.64C2609.42 738.99 2613.9 757.77 2613.9 780.97V935.3H2562.97ZM2481.95 941.71C2463.74 941.71 2447.7 938.5 2433.81 932.09C2420.23 925.68 2409.58 916.52 2401.86 904.62C2394.46 892.71 2390.75 878.36 2390.75 861.57C2390.75 843.25 2395.23 828.29 2404.18 816.69C2413.44 805.09 2426.25 796.39 2442.6 790.59C2459.27 784.79 2478.71 781.89 2500.94 781.89H2559.27V819.9H2500.01C2485.2 819.9 2473.78 823.56 2465.75 830.89C2458.04 837.91 2454.18 847.07 2454.18 858.36C2454.18 869.66 2458.04 878.82 2465.75 885.84C2473.78 892.86 2485.2 896.37 2500.01 896.37C2508.96 896.37 2517.14 894.85 2524.55 891.79C2532.26 888.44 2538.59 882.94 2543.53 875.31C2548.77 867.37 2551.71 856.69 2552.32 843.25L2568.06 861.11C2566.52 878.51 2562.2 893.17 2555.1 905.07C2548.31 916.98 2538.74 926.14 2526.4 932.55C2514.36 938.66 2499.55 941.71 2481.95 941.71Z" fill="#79BB51" data-index="5" style="opacity: 1;"></path>
<path d="M2682.83 935.3V686.64H2733.75V791.96H2732.36C2732.36 756.24 2740.08 729.22 2755.51 710.91C2770.94 692.59 2793.63 683.43 2823.56 683.43H2832.82V738.84H2815.23C2793.63 738.84 2776.81 744.64 2764.77 756.24C2753.04 767.54 2747.18 784.02 2747.18 805.7V935.3H2682.83Z" fill="#79BB51" data-index="6"></path>
<path d="M3023.56 943.54C3002.88 943.54 2984.67 939.27 2968.93 930.72C2953.19 921.87 2940.84 909.04 2931.89 892.25C2922.94 875.46 2918 855.16 2917.08 831.35H2926.8V935.3H2875.87V601H2940.23V768.15L2923.1 794.25C2924.33 768.61 2929.42 747.24 2938.37 730.14C2947.63 713.04 2959.98 700.22 2975.41 691.67C2990.84 683.12 3008.28 678.85 3027.72 678.85C3045.01 678.85 3060.75 682.06 3074.95 688.47C3089.14 694.88 3101.33 703.88 3111.52 715.49C3121.7 726.78 3129.42 740.06 3134.67 755.33C3140.22 770.59 3143 787.23 3143 805.24V814.86C3143 832.87 3140.22 849.66 3134.67 865.23C3129.11 880.8 3121.09 894.54 3110.59 906.45C3100.1 918.05 3087.45 927.21 3072.63 933.93C3058.12 940.34 3041.77 943.54 3023.56 943.54ZM3009.21 889.96C3023.09 889.96 3035.13 886.6 3045.32 879.89C3055.81 872.87 3063.99 863.4 3069.85 851.5C3075.72 839.59 3078.65 825.85 3078.65 810.28C3078.65 794.4 3075.72 780.67 3069.85 769.07C3063.99 757.46 3055.81 748.46 3045.32 742.05C3035.13 735.64 3023.09 732.43 3009.21 732.43C2996.55 732.43 2984.82 735.18 2974.02 740.67C2963.53 746.17 2954.89 754.26 2948.1 764.94C2941.61 775.63 2938.37 788.45 2938.37 803.41V821.73C2938.37 836.08 2941.77 848.29 2948.56 858.36C2955.35 868.44 2964.15 876.22 2974.95 881.72C2985.75 887.21 2997.17 889.96 3009.21 889.96Z" fill="white" data-index="7" style="opacity: 1;"></path>
<path d="M727 947H533.346C453.074 947 388 869.55 388 774C388 678.45 453.073 601 533.346 601H727" stroke="white" stroke-width="41" data-index="8" style="opacity: 1;"></path>
<path d="M772 601H965.654C1045.93 601 1111 678.45 1111 774C1111 869.55 1045.93 947 965.654 947H772" stroke="#79BB51" stroke-width="41" data-index="9" style="opacity: 1;"></path>
</svg>