<svg width="3531" height="1452" viewBox="0 0 3531 1452" fill="none" xmlns="http://www.w3.org/2000/svg">
<path d="M1334.83 853.538C1317.24 853.538 1301.04 850.304 1286.22 843.837C1271.41 837.37 1258.6 828.285 1247.8 816.582C1236.99 804.879 1228.66 791.329 1222.8 775.931C1216.93 760.224 1214 743.286 1214 725.116V715.415C1214 697.553 1216.78 680.769 1222.33 665.063C1228.2 649.356 1236.22 635.652 1246.41 623.949C1256.9 612.247 1269.4 603.162 1283.91 596.694C1298.72 589.919 1315.08 586.531 1332.98 586.531C1352.73 586.531 1370.02 590.843 1384.83 599.466C1399.95 607.781 1411.99 620.408 1420.94 637.346C1429.89 654.284 1434.83 675.534 1435.76 701.095L1416.77 678.921V508H1481.13V845.223H1430.2V738.513H1441.31C1440.39 764.074 1435.14 785.478 1425.57 802.724C1416 819.662 1403.35 832.442 1387.61 841.065C1372.18 849.381 1354.58 853.538 1334.83 853.538ZM1349.18 799.49C1361.84 799.49 1373.41 796.718 1383.9 791.175C1394.4 785.324 1402.73 777.008 1408.9 766.23C1415.39 755.143 1418.63 742.208 1418.63 727.426V708.948C1418.63 694.166 1415.39 681.847 1408.9 671.992C1402.42 661.829 1393.94 654.13 1383.44 648.895C1372.95 643.351 1361.53 640.579 1349.18 640.579C1335.29 640.579 1322.95 643.967 1312.15 650.742C1301.65 657.21 1293.32 666.449 1287.15 678.459C1281.28 690.47 1278.35 704.482 1278.35 720.497C1278.35 736.511 1281.44 750.523 1287.61 762.534C1293.78 774.237 1302.12 783.322 1312.61 789.789C1323.41 796.256 1335.6 799.49 1349.18 799.49Z" fill="black"/>
<path d="M1666.87 854C1645.27 854 1626.29 850.304 1609.93 842.913C1593.88 835.522 1580.45 825.667 1569.65 813.348C1559.16 800.722 1551.13 786.709 1545.58 771.311C1540.33 755.913 1537.71 740.207 1537.71 724.192V715.415C1537.71 698.785 1540.33 682.771 1545.58 667.372C1551.13 651.666 1559.16 637.808 1569.65 625.797C1580.45 613.478 1593.72 603.777 1609.46 596.694C1625.21 589.303 1643.41 585.607 1664.09 585.607C1691.25 585.607 1713.94 591.613 1732.15 603.624C1750.67 615.326 1764.55 630.879 1773.81 650.28C1783.07 669.374 1787.7 690.008 1787.7 712.182V735.279H1565.02V696.013H1747.43L1727.52 715.415C1727.52 699.401 1725.2 685.696 1720.57 674.302C1715.94 662.907 1708.85 654.13 1699.28 647.971C1690.02 641.811 1678.29 638.732 1664.09 638.732C1649.9 638.732 1637.86 641.965 1627.98 648.433C1618.11 654.9 1610.55 664.293 1605.3 676.611C1600.36 688.622 1597.89 703.097 1597.89 720.035C1597.89 735.741 1600.36 749.753 1605.3 762.072C1610.24 774.083 1617.8 783.63 1627.98 790.713C1638.17 797.488 1651.13 800.876 1666.87 800.876C1682.61 800.876 1695.42 797.796 1705.3 791.637C1715.17 785.17 1721.5 777.316 1724.28 768.077H1783.54C1779.83 785.324 1772.73 800.414 1762.24 813.348C1751.75 826.283 1738.32 836.292 1721.96 843.375C1705.91 850.458 1687.55 854 1666.87 854Z" fill="black"/>
<path d="M1953.96 854C1932.35 854 1913.37 850.304 1897.01 842.913C1880.97 835.522 1867.54 825.667 1856.74 813.348C1846.24 800.722 1838.22 786.709 1832.66 771.311C1827.42 755.913 1824.79 740.207 1824.79 724.192V715.415C1824.79 698.785 1827.42 682.771 1832.66 667.372C1838.22 651.666 1846.24 637.808 1856.74 625.797C1867.54 613.478 1880.81 603.777 1896.55 596.694C1912.29 589.303 1930.5 585.607 1951.18 585.607C1978.34 585.607 2001.02 591.613 2019.23 603.624C2037.75 615.326 2051.64 630.879 2060.9 650.28C2070.16 669.374 2074.79 690.008 2074.79 712.182V735.279H1852.11V696.013H2034.51L2014.6 715.415C2014.6 699.401 2012.29 685.696 2007.66 674.302C2003.03 662.907 1995.93 654.13 1986.36 647.971C1977.11 641.811 1965.38 638.732 1951.18 638.732C1936.98 638.732 1924.95 641.965 1915.07 648.433C1905.19 654.9 1897.63 664.293 1892.38 676.611C1887.45 688.622 1884.98 703.097 1884.98 720.035C1884.98 735.741 1887.45 749.753 1892.38 762.072C1897.32 774.083 1904.88 783.63 1915.07 790.713C1925.25 797.488 1938.22 800.876 1953.96 800.876C1969.7 800.876 1982.51 797.796 1992.38 791.637C2002.26 785.17 2008.59 777.316 2011.36 768.077H2070.62C2066.92 785.324 2059.82 800.414 2049.33 813.348C2038.83 826.283 2025.41 836.292 2009.05 843.375C1993 850.458 1974.64 854 1953.96 854Z" fill="black"/>
<path d="M2304.47 845.223L2220.21 727.888H2182.71L2289.65 594.385H2356.78L2258.17 717.725L2259.56 685.389L2377.15 845.223H2304.47ZM2128.55 845.223V508H2192.9V845.223H2128.55Z" fill="#79BB51"/>
<path d="M2562.97 845.223V770.849H2552.32V688.16C2552.32 673.686 2548.77 662.907 2541.68 655.824C2534.58 648.741 2523.62 645.199 2508.81 645.199C2501.09 645.199 2491.83 645.353 2481.03 645.661C2470.23 645.969 2459.27 646.431 2448.16 647.047C2437.36 647.355 2427.63 647.817 2418.99 648.433V593.923C2426.09 593.307 2434.12 592.691 2443.07 592.075C2452.02 591.459 2461.12 591.151 2470.38 591.151C2479.95 590.843 2488.9 590.689 2497.23 590.689C2523.16 590.689 2544.61 594.077 2561.58 600.852C2578.87 607.627 2591.83 618.252 2600.47 632.726C2609.42 647.201 2613.9 666.141 2613.9 689.546V845.223H2562.97ZM2481.95 851.69C2463.74 851.69 2447.7 848.457 2433.81 841.989C2420.23 835.522 2409.58 826.283 2401.86 814.272C2394.46 802.262 2390.75 787.787 2390.75 770.849C2390.75 752.371 2395.23 737.281 2404.18 725.578C2413.44 713.875 2426.25 705.098 2442.6 699.247C2459.27 693.396 2478.71 690.47 2500.94 690.47H2559.27V728.812H2500.01C2485.2 728.812 2473.78 732.507 2465.75 739.899C2458.04 746.982 2454.18 756.221 2454.18 767.616C2454.18 779.01 2458.04 788.249 2465.75 795.332C2473.78 802.416 2485.2 805.957 2500.01 805.957C2508.96 805.957 2517.14 804.417 2524.55 801.338C2532.26 797.95 2538.59 792.407 2543.53 784.708C2548.77 776.701 2551.71 765.922 2552.32 752.371L2568.06 770.387C2566.52 787.941 2562.2 802.724 2555.1 814.734C2548.31 826.745 2538.74 835.984 2526.4 842.451C2514.36 848.611 2499.55 851.69 2481.95 851.69Z" fill="#79BB51"/>
<path d="M2682.83 845.223V594.385H2733.75V700.633H2732.36C2732.36 664.601 2740.08 637.346 2755.51 618.868C2770.94 600.39 2793.63 591.151 2823.56 591.151H2832.82V647.047H2815.23C2793.63 647.047 2776.81 652.898 2764.77 664.601C2753.04 675.996 2747.18 692.626 2747.18 714.491V845.223H2682.83Z" fill="#79BB51"/>
<path d="M3023.56 853.538C3002.88 853.538 2984.67 849.227 2968.93 840.603C2953.19 831.672 2940.84 818.738 2931.89 801.8C2922.94 784.862 2918 764.382 2917.08 740.361H2926.8V845.223H2875.87V508H2940.23V676.611L2923.1 702.943C2924.33 677.073 2929.42 655.516 2938.37 638.27C2947.63 621.024 2959.98 608.089 2975.41 599.466C2990.84 590.843 3008.28 586.531 3027.72 586.531C3045.01 586.531 3060.75 589.765 3074.95 596.232C3089.14 602.7 3101.33 611.785 3111.52 623.487C3121.7 634.882 3129.42 648.279 3134.67 663.677C3140.22 679.075 3143 695.859 3143 714.029V723.73C3143 741.9 3140.22 758.838 3134.67 774.545C3129.11 790.251 3121.09 804.11 3110.59 816.12C3100.1 827.823 3087.45 837.062 3072.63 843.837C3058.12 850.304 3041.77 853.538 3023.56 853.538ZM3009.21 799.49C3023.09 799.49 3035.13 796.102 3045.32 789.327C3055.81 782.244 3063.99 772.697 3069.85 760.686C3075.72 748.676 3078.65 734.817 3078.65 719.111C3078.65 703.097 3075.72 689.238 3069.85 677.535C3063.99 665.833 3055.81 656.748 3045.32 650.28C3035.13 643.813 3023.09 640.579 3009.21 640.579C2996.55 640.579 2984.82 643.351 2974.02 648.895C2963.53 654.438 2954.89 662.599 2948.1 673.378C2941.61 684.157 2938.37 697.091 2938.37 712.182V730.66C2938.37 745.134 2941.77 757.453 2948.56 767.616C2955.35 777.778 2964.15 785.632 2974.95 791.175C2985.75 796.718 2997.17 799.49 3009.21 799.49Z" fill="black"/>
<path d="M727 854H533.346C453.074 854 388 776.545 388 681C388 585.455 453.073 508 533.346 508H727" stroke="black" stroke-width="41"/>
<path d="M772 508H965.654C1045.93 508 1111 585.455 1111 681C1111 776.545 1045.93 854 965.654 854H772" stroke="#79BB51" stroke-width="41"/>
</svg>
