<?xml version="1.0" encoding="utf-8"?>
<!-- Generator: Adobe Illustrator 25.4.1, SVG Export Plug-In . SVG Version: 6.00 Build 0)  -->
<svg version="1.1" id="Layer_1" xmlns="http://www.w3.org/2000/svg" xmlns:xlink="http://www.w3.org/1999/xlink" x="0px" y="0px"
	 viewBox="0 0 815 166.4" style="enable-background:new 0 0 815 166.4;" xml:space="preserve">
<path d="M804.5,2.2c-4.6,0-8.4,3.8-8.4,8.4s3.8,8.4,8.4,8.4c4.6,0,8.4-3.8,8.4-8.4C812.9,5.9,809.2,2.2,804.5,2.2
	C804.5,2.2,804.5,2.2,804.5,2.2z M804.5,17.9c-4,0-7.2-3.3-7.2-7.3c0,0,0,0,0-0.1c0-4,3.2-7.2,7.2-7.2c4,0,7.2,3.2,7.2,7.2
	C811.8,14.6,808.6,17.8,804.5,17.9C804.6,17.9,804.5,17.9,804.5,17.9z"/>
<path d="M804.5,19c-4.7,0-8.5-3.8-8.5-8.5s3.8-8.5,8.5-8.5c4.7,0,8.5,3.8,8.5,8.5c0,0,0,0,0,0C813,15.2,809.2,19,804.5,19z
	 M804.5,2.2c-4.6,0-8.3,3.7-8.3,8.3c0,4.6,3.7,8.3,8.3,8.3c4.6,0,8.3-3.7,8.3-8.3C812.8,5.9,809.1,2.2,804.5,2.2L804.5,2.2z
	 M804.5,17.9c-4.1,0.1-7.4-3.2-7.5-7.3s3.2-7.4,7.3-7.5c4.1-0.1,7.4,3.2,7.5,7.3c0,0,0,0.1,0,0.1C811.8,14.6,808.6,17.9,804.5,17.9
	C804.5,17.9,804.5,17.9,804.5,17.9L804.5,17.9z M804.5,3.3c-4-0.1-7.3,3.1-7.3,7.1c-0.1,4,3.1,7.3,7.1,7.3c4,0.1,7.3-3.1,7.3-7.1
	c0,0,0-0.1,0-0.1C811.7,6.6,808.5,3.3,804.5,3.3L804.5,3.3z"/>
<path d="M808.1,8.4c0-1.7-0.9-2.7-3.1-2.7h-3.7v9.6h1.1v-4.3h2l2.8,4.3h1.3l-2.8-4.3C807,11,808.1,9.8,808.1,8.4z M802.3,10.1V6.7
	h2.4c1.2,0,2.3,0.4,2.3,1.7s-1,1.7-2.3,1.7H802.3z"/>
<path d="M808.5,15.4h-1.3c0,0,0,0-0.1,0l-2.8-4.2h-1.9v4.2c0,0,0,0.1-0.1,0.1l0,0h-1.1c0,0-0.1,0-0.1-0.1V5.7c0,0,0-0.1,0.1-0.1h3.7
	c2.2,0,3.2,0.9,3.2,2.7c0.1,1.4-1,2.6-2.4,2.7l2.8,4.2C808.6,15.4,808.6,15.4,808.5,15.4C808.5,15.4,808.5,15.4,808.5,15.4z
	 M807.2,15.3h1.1l-2.8-4.2c0,0,0,0,0-0.1l0,0c1.4-0.1,2.5-1.2,2.4-2.6c0,0,0,0,0,0c0-1.8-1-2.6-3-2.6h-3.6v9.5h0.9v-4.2
	c0,0,0-0.1,0.1-0.1l0,0h2c0,0,0,0,0.1,0L807.2,15.3z M804.7,10.2h-2.4c0,0-0.1,0-0.1-0.1c0,0,0,0,0,0V6.7c0,0,0-0.1,0.1-0.1h2.4
	c1.5,0,2.3,0.6,2.3,1.8C807,10,805.7,10.2,804.7,10.2z M802.4,10h2.3c1.5,0,2.2-0.5,2.2-1.6s-0.7-1.6-2.2-1.6h-2.3V10z"/>
<path d="M225.6,50.8c-10-2.6-20.3-3.9-30.7-4c-24.6,0-36.5,14.5-36.5,38.3v11.8c0,23.8,11.9,38.3,36.5,38.3
	c10.3-0.1,20.6-1.5,30.7-4c3.5-0.9,4.1-1.8,4.1-4.1V54.9C229.8,52.6,229.1,51.7,225.6,50.8z M209.6,117.6c-4.8,0.8-9.7,1.1-14.6,1.1
	c-13.1,0-16.3-9.3-16.3-21.8V85.1c0-12.5,3.2-21.8,16.3-21.8c4.9-0.1,9.8,0.3,14.6,1.1L209.6,117.6z"/>
<g id="SPLINE">
	<path d="M266.1,133.9h-14.2c-1.7-0.1-3.1-1.5-3.1-3.2V20.9c0-1.7,1.4-3,3.1-3h14.2c1.6,0,2.9,1.4,2.9,3c0,0,0,0,0,0.1v109.8
		C269,132.4,267.8,133.8,266.1,133.9z"/>
</g>
<path d="M322.8,46.8c-10.3,0.1-20.6,1.5-30.7,4c-3.5,0.9-4.1,1.8-4.1,4.1v106.2c0,1.6,1.4,3,3,3h14c1.7,0,3-1.3,3-3v-27
	c4.9,0.7,9.7,1,14.6,1.1c24.6,0,36.5-14.5,36.5-38.3V85.1C359.3,61.3,347.4,46.8,322.8,46.8z M339.1,96.8c0,12.5-3.2,21.8-16.3,21.8
	c-4.9-0.1-9.8-0.4-14.6-1.1V64.4c4.8-0.8,9.7-1.1,14.6-1.1c13.1,0,16.3,9.3,16.3,21.8V96.8z"/>
<g id="SPLINE-2">
	<path d="M392.1,133.9h-14c-1.7-0.1-3.1-1.5-3-3.2V50.9c0-1.7,1.4-3,3-3h14c1.7,0,3,1.3,3,3v79.8
		C395.1,132.4,393.8,133.9,392.1,133.9z"/>
</g>
<g id="SPLINE-3">
	<path d="M392.5,36.5h-14.8c-1.7,0-3.1-1.3-3.2-3.1V20c0.1-1.7,1.5-3,3.2-3h14.8c1.6,0,3,1.4,3,3v13.4
		C395.5,35.1,394.2,36.4,392.5,36.5z"/>
</g>
<g id="SPLINE-4">
	<path d="M455.1,133.9c-5.9,0.8-11.9,1.2-17.9,1.2c-15.1,0-24.1-5.2-24.1-22.9V35.4c0-1.7,1.4-2.8,3-3l14.2-2.4h0.5
		c1.5,0.2,2.6,1.5,2.6,3v15h21.5c1.7,0,3,1.3,3,3v9c0,1.7-1.3,3.1-3,3.1c0,0,0,0,0,0h-21.5v49.3c0,6.1,2.7,7.2,9.3,7.2h12.1
		c2,0,3.2,0.8,3.2,2.3v9.5C458,132.7,457.1,133.6,455.1,133.9z"/>
</g>
<g id="SPLINE-5">
	<path d="M505.3,63.8c-5-0.1-10,0.3-15,1.1v65.9c0.1,1.7-1.2,3.1-2.9,3.2h-14.2c-1.7-0.1-3.1-1.5-3.1-3.2V55.8c0-2,1.4-3.7,4.1-4.6
		c9.8-3.2,17.9-4.4,31-4.4c1.8,0,4.4,0.3,4.4,2.6V61C509.7,62.7,508.8,63.8,505.3,63.8z"/>
</g>
<path d="M555.8,46.8c-24,0-36.5,16.2-36.5,38v12.3c0,21.8,12.5,38,36.5,38s36.5-16.2,36.5-38V84.8C592.2,63,579.7,46.8,555.8,46.8z
	 M572.1,97.2c0,12.5-5.7,20.6-16.3,20.6s-16.3-8.1-16.3-20.6V84.8c0-12.5,5.7-20.6,16.3-20.6s16.3,8.1,16.3,20.6V97.2z"/>
<g id="SPLINE-6">
	<path d="M674.8,133.9h-14.3c-1.7-0.1-3-1.5-2.9-3.2V77.9c0-7.5-1.5-14.3-10.4-14.3h-9.5c-8.8,0-10.4,6.9-10.4,14.3v52.8
		c0.1,1.7-1.2,3.1-2.9,3.2h-14.3c-1.7-0.1-3-1.5-2.9-3.2V77.9c0-18.5,10.7-31.1,30.5-31.1h9.5c19.8,0,30.5,12.7,30.5,31.1v52.8
		C677.7,132.4,676.5,133.8,674.8,133.9z"/>
</g>
<g id="SPLINE-7">
	<path d="M136.1,127.8l-42.7,4.6l13,24.9l48.9,7.3L136.1,127.8z"/>
</g>
<g id="SPLINE-8">
	<path d="M16.5,136.7c-10.6-2.9-6-10.6-6-10.6C12.8,121,42.9,69,47,60.1c1.8-3.8,6.5-4.9,8.8-0.6c2.7,5,22,42.2,32.2,61.6l42.3-4.6
		C108.1,74,78.4,17.1,73.7,8.2c-5-9.3-15-6.9-18.8,1.2c-8.8,19-43.6,99.2-48.4,110.1c-1.5,3.4-11.5,22,12.8,24.8l80.5,12.1
		l-11.9-22.9C59.9,136.2,27.8,139.8,16.5,136.7z"/>
</g>
<g id="SPLINE-9">
	<path d="M712.8,133.9h-14c-1.7-0.1-3.1-1.5-3-3.2V50.9c0-1.7,1.4-3,3-3h14c1.6,0,3,1.4,3,3v79.8
		C715.8,132.4,714.5,133.8,712.8,133.9z"/>
</g>
<g id="SPLINE-10">
	<path d="M713.2,36.5h-14.8c-1.7,0-3.1-1.3-3.2-3.1V20c0.1-1.7,1.5-3,3.2-3h14.8c1.6,0,3,1.4,3,3v13.4
		C716.2,35.1,714.9,36.4,713.2,36.5z"/>
</g>
<g id="SPLINE-11">
	<path d="M786,133.2c-6.5,1.4-13.1,2.1-19.7,2c-19.8,0-34.8-12.2-34.8-37.1V83.9c0-24.9,15-37.1,34.8-37.1c6.6-0.1,13.2,0.6,19.7,2
		c2.6,0.6,3.2,1.5,3.2,4v9.9c0,1.5-1.2,2.3-2.7,2.3H786c-6.5-0.8-13.1-1.2-19.7-1.1c-7.2,0-14.7,4.1-14.7,20v14.1
		c0,15.9,7.5,20,14.7,20c6.6,0.1,13.1-0.2,19.7-1.1h0.5c1.5,0,2.7,0.8,2.7,2.3v9.9C789.2,131.6,788.6,132.6,786,133.2z"/>
</g>
</svg>
